<svg width="113" height="106" viewBox="0 0 113 106" fill="none" xmlns="http://www.w3.org/2000/svg">
<path d="M0.0399358 38.1703C0.034241 37.9429 0.0228521 37.7156 0.0228521 37.4882C0.0228521 26.5583 0.0456264 15.6342 6.81203e-05 4.70423C-0.0113215 2.71061 1.40668 0.687851 3.38277 0.157385C3.73015 0.0641159 4.08323 0.0058229 4.44769 0.0116522C5.07982 0.0174815 5.71764 0.0058172 6.34976 0.0058172C40.1255 0.0058172 73.907 0.0058293 107.683 0C109.619 0 111.031 0.868562 111.954 2.58238C112.387 3.38099 112.501 4.27286 112.506 5.1764C112.512 6.87856 112.506 8.58656 112.506 10.2887C112.506 17.6861 112.506 25.0835 112.506 32.4809C112.506 33.3378 112.495 34.2005 112.199 35.0224C111.652 36.5381 110.627 37.5349 109.106 38.007C108.691 38.1353 108.275 38.2052 107.842 38.1877C107.74 38.1819 107.637 38.1877 107.535 38.1877C84.3114 38.1936 61.088 38.1994 37.8704 38.2052C32.2212 38.2052 26.5776 38.1994 20.9284 38.1936C20.6835 38.3451 20.4102 38.3626 20.1368 38.3626C13.696 38.3626 7.25522 38.3626 0.808727 38.3568C0.541072 38.3568 0.256338 38.3976 0.0399358 38.1703Z" fill="#AC8FFF"/>
<path d="M20.9342 47.8994C21.1392 47.8935 21.3442 47.8877 21.5492 47.8877C37.9046 47.8877 54.2658 47.8819 70.6212 47.8935C72.8194 47.8935 74.7157 49.4733 75.2397 51.4144C75.3593 51.8633 75.4162 52.3005 75.4162 52.7552C75.4162 62.2978 75.4219 71.8345 75.4105 81.377C75.4048 83.3415 74.4766 84.7697 72.7966 85.7082C72.3353 85.9647 71.8684 86.0696 71.333 86.0696C55.5927 86.058 39.8523 86.0638 24.1119 86.0463C23.5993 86.0463 23.2235 86.2095 22.8818 86.5476C21.7941 87.6436 20.6437 88.6637 19.5219 89.7246C18.7075 90.4941 17.8989 91.281 17.0731 92.0447C16.4296 92.6393 15.8886 93.333 15.228 93.9042C14.5218 94.5163 13.8669 95.1867 13.1836 95.822C12.3578 96.5857 11.515 97.326 10.6893 98.0897C10.2565 98.4919 9.84073 98.9057 9.40793 99.3021C8.16077 100.451 6.95917 101.646 5.71771 102.8C4.65278 103.791 3.57077 104.758 2.52862 105.779C2.38625 105.918 2.23249 106 2.02748 106C1.4637 105.988 0.89422 105.988 0.330436 105.988C0.119729 105.988 0.00583682 105.913 0.0229212 105.679C0.028616 105.557 0.0229212 105.435 0.0229212 105.312C0.0229212 92.2429 0.0229212 79.1677 0.0229212 66.0985C0.0229212 65.9061 0.0286097 65.7137 0.0343045 65.5214C0.774627 65.1949 1.50926 65.2882 2.24388 65.5563C2.40903 65.737 2.335 65.9586 2.335 66.1626C2.3407 71.7995 2.34069 77.4423 2.34069 83.0792C2.34069 83.6913 2.3407 83.6913 2.95573 83.6913C9.22 83.6913 15.4843 83.6913 21.7485 83.6913C21.9194 83.6913 22.0902 83.668 22.2952 83.7204C22.1016 83.6621 21.9365 83.6913 21.7713 83.6913C15.49 83.6913 9.20861 83.6913 2.92726 83.6913C2.34069 83.6913 2.34069 83.6913 2.34069 83.0967C2.34069 77.314 2.34069 71.5372 2.34069 65.7604C2.24958 65.4397 2.43182 65.2299 2.63113 65.0259C3.66189 63.9999 4.7439 63.0264 5.80313 62.0296C6.79971 61.0969 7.7963 60.1584 8.79858 59.2257C10.4045 57.7276 11.9991 56.212 13.605 54.7138C14.8578 53.5421 16.0936 52.3588 17.318 51.1638C17.7166 50.7732 18.0697 50.2836 18.6847 50.1961C18.941 50.2369 19.203 50.2194 19.4592 50.2194C37.0333 50.2194 54.6131 50.2194 72.1873 50.2194C73.2807 50.2194 73.0927 50.202 73.0927 51.1521C73.0984 61.779 73.0927 72.4116 73.0927 83.0384C73.0927 83.6855 73.0927 83.6913 72.4492 83.6913C56.5892 83.6913 40.7293 83.6913 24.8693 83.6913C24.7212 83.6913 24.5675 83.7146 24.4991 83.6971C24.5902 83.6971 24.7668 83.6971 24.9433 83.6971C40.7691 83.6971 56.5949 83.6971 72.4207 83.6971C73.1668 83.6971 73.0927 83.7612 73.0927 83.0267C73.0927 72.3241 73.0927 61.6274 73.0927 50.9248C73.0927 50.2194 73.0927 50.2194 72.3752 50.2194C54.8182 50.2194 37.2554 50.2194 19.6984 50.2194C19.4251 50.2194 19.1517 50.2369 18.8784 50.202C18.6563 50.097 18.6676 49.928 18.81 49.7881C19.5105 49.1352 20.1483 48.424 20.9342 47.8994Z" fill="#74FFFF"/>
<path d="M0.0398282 38.1703C0.261925 38.1761 0.484021 38.182 0.706117 38.182C7.24373 38.182 13.7813 38.182 20.3133 38.182C20.5183 38.182 20.7233 38.1878 20.9283 38.1936C20.319 38.899 19.6014 39.4994 18.9237 40.1348C18.4852 40.5428 18.0581 40.9742 17.5969 41.3589C16.9249 41.9185 16.3269 42.5772 15.6891 43.1776C14.647 44.157 13.5706 45.0955 12.5513 46.1039C11.9533 46.6985 11.2642 47.1998 10.7403 47.876C10.7175 47.8993 10.6948 47.9285 10.6663 47.9518C10.4271 48.0859 10.1652 48.0626 9.90889 48.0626C6.89066 48.0626 3.86672 48.0626 0.848487 48.0626C0.558053 48.0626 0.256228 48.1092 0.0113525 47.8877C0.0113525 44.804 0.0113525 41.7261 0.0113525 38.6425C0.0170473 38.4851 0.0284386 38.3277 0.0398282 38.1703Z" fill="#FEB7FE"/>
<path d="M20.934 47.8994C20.336 48.6106 19.6071 49.176 18.9408 49.8172C18.8781 49.8755 18.8269 49.9396 18.7699 50.0038C18.7244 50.167 18.5763 50.2253 18.4624 50.3185C18.0695 50.6566 17.6765 50.9889 17.3007 51.3503C16.0137 52.6036 14.7209 53.8511 13.3884 55.0578C12.7847 55.6057 12.2095 56.177 11.6173 56.7366C9.9658 58.2872 8.31431 59.8378 6.65713 61.3942C5.40997 62.5659 4.15712 63.7376 2.90996 64.9151C2.72203 65.09 2.55118 65.2882 2.37465 65.4806C2.34617 65.5913 2.23228 65.5563 2.16394 65.5972C1.45209 65.4864 0.740245 65.5155 0.0283967 65.5214C0.0283967 62.3153 0.0227051 59.1091 0.0227051 55.9088C0.546625 55.6524 1.09902 55.7806 1.63433 55.8156C1.95893 55.8389 2.18103 55.7689 2.41451 55.5474C4.53867 53.5655 6.64574 51.566 8.77559 49.5899C9.40202 49.0069 9.94302 48.2958 10.7289 47.8994L10.746 47.8819C12.1868 47.8877 13.6275 47.8935 15.0683 47.8935C17.0216 47.8935 18.975 47.8936 20.934 47.8994Z" fill="#FEB7FE"/>
<path d="M10.7289 47.8935C10.1822 48.4182 9.63551 48.9428 9.08881 49.4675C9.00339 49.5491 8.90088 49.619 8.81546 49.7006C8.16626 50.3244 7.54552 50.9772 6.86784 51.5718C5.87694 52.4346 4.96009 53.3789 3.98058 54.2475C3.43958 54.7255 2.91566 55.2326 2.39743 55.7456C2.19811 55.9438 2.01588 56.0196 1.71975 55.9496C1.16736 55.8272 0.592181 55.9263 0.0283967 55.8971C0.0283967 53.2273 0.0227051 50.5575 0.0227051 47.8877C3.58764 47.8877 7.15828 47.8877 10.7289 47.8935Z" fill="#FE96FD"/>
<path d="M56.0255 23.6495C53.6906 23.7544 51.3672 21.6209 51.3899 18.852C51.407 16.4736 53.2009 14.0836 56.0825 14.0894C58.6053 14.0952 60.7351 16.0189 60.7465 18.8869C60.7579 21.8949 58.3091 23.7719 56.0255 23.6495Z" fill="#4A21AA"/>
<path d="M92.7056 23.6495C90.3594 23.7602 88.0416 21.6209 88.0587 18.8636C88.0701 16.4852 89.8525 14.0952 92.7398 14.0894C95.2341 14.0836 97.3925 15.9781 97.4096 18.8753C97.4323 21.8715 95.0063 23.7661 92.7056 23.6495Z" fill="#4A21AA"/>
<path d="M14.738 18.8811C14.5387 16.6835 16.3724 14.0836 19.3508 14.0953C22.0501 14.1069 24.0205 16.2579 24.0205 18.8869C24.0205 21.7258 21.7369 23.6495 19.3451 23.667C16.7711 23.6844 14.5273 21.3527 14.738 18.8811Z" fill="#4A21AA"/>
<path d="M18.4625 50.3127C18.5309 50.1728 18.6334 50.0679 18.77 49.9979C18.827 50.0679 18.9067 50.097 18.9978 50.097C19.1516 50.097 19.3054 50.097 19.4591 50.097C37.0845 50.097 54.7155 50.097 72.3409 50.097C73.2008 50.097 73.1495 50.097 73.1495 50.9423C73.1495 61.6449 73.1495 72.3416 73.1495 83.0442C73.1495 83.7904 73.2008 83.7321 72.4889 83.7321C56.5094 83.7321 40.5298 83.7321 24.5502 83.7321C24.3794 83.7321 24.2143 83.7321 24.0434 83.7321C24.22 83.5922 24.4193 83.6272 24.6015 83.6272C40.4786 83.6272 56.3556 83.6272 72.2327 83.6272C72.4035 83.6272 72.5744 83.6214 72.7452 83.6272C72.9673 83.633 73.0527 83.5164 73.0413 83.3007C73.0356 83.1783 73.0413 83.0559 73.0413 82.9335C73.0413 72.2834 73.0413 61.6391 73.0413 50.9889C73.0413 50.9364 73.0413 50.884 73.0413 50.8315C73.0356 50.3127 73.0356 50.3127 72.5231 50.3069C72.4035 50.3069 72.2839 50.3069 72.1643 50.3069C54.4877 50.3069 36.8054 50.3069 19.1288 50.3069C18.9067 50.3127 18.6846 50.3127 18.4625 50.3127Z" fill="#7FFFFF"/>
<path d="M2.16418 65.5854C2.23252 65.5446 2.30655 65.5097 2.37489 65.4689C2.38058 65.6962 2.38628 65.9235 2.38628 66.1509C2.38628 71.7004 2.38628 77.2499 2.38628 82.7994C2.38628 82.8868 2.38628 82.9743 2.38628 83.0617C2.39198 83.6213 2.39197 83.6271 2.96145 83.6271C3.11521 83.6271 3.26898 83.6271 3.42274 83.6271C9.54463 83.6271 15.6722 83.6271 21.7941 83.6271C21.9764 83.6271 22.17 83.5922 22.3693 83.6679C22.2155 83.7787 22.0618 83.7321 21.9194 83.7321C15.5697 83.7321 9.22572 83.7321 2.87603 83.7321C2.27239 83.7321 2.27239 83.7321 2.27239 83.085C2.27239 82.1173 2.27239 81.1555 2.27239 80.1879C2.27239 75.5361 2.27239 70.8785 2.2667 66.2267C2.28378 66.0168 2.3692 65.772 2.16418 65.5854Z" fill="#84FFFF"/>
</svg>
