<svg width="100" height="123" viewBox="0 0 100 123" fill="none" xmlns="http://www.w3.org/2000/svg">
<path d="M0.848404 44.4188C0.843388 44.1583 0.833358 43.8979 0.833358 43.6375C0.833358 31.1159 0.853416 18.6011 0.813292 6.07958C0.803262 3.79566 2.0521 1.47835 3.79244 0.870641C4.09838 0.76379 4.40933 0.697009 4.73032 0.703687C5.28703 0.710365 5.84876 0.697002 6.40547 0.697002C36.1518 0.697002 65.9032 0.697016 95.6495 0.690338C97.3548 0.690338 98.5986 1.68538 99.4111 3.64875C99.7923 4.56366 99.8926 5.5854 99.8976 6.62051C99.9026 8.57053 99.8976 10.5272 99.8976 12.4773C99.8976 20.9518 99.8976 29.4264 99.8976 37.9009C99.8976 38.8826 99.8875 39.871 99.6267 40.8126C99.1453 42.5489 98.2425 43.6909 96.9034 44.2318C96.5373 44.3787 96.1711 44.4589 95.79 44.4388C95.6997 44.4322 95.6094 44.4388 95.5191 44.4388C75.0663 44.4455 54.6135 44.4522 34.1657 44.4589C29.1904 44.4589 24.2202 44.4522 19.2449 44.4455C19.0292 44.6191 18.7885 44.6392 18.5478 44.6392C12.8753 44.6392 7.20291 44.6392 1.52548 44.6325C1.28975 44.6325 1.03899 44.6792 0.848404 44.4188Z" fill="#AC8FFF"/>
<path d="M19.25 55.5646C19.4305 55.558 19.6111 55.5513 19.7916 55.5513C34.1959 55.5513 48.6051 55.5446 63.0093 55.558C64.9453 55.558 66.6154 57.3677 67.0768 59.5916C67.1822 60.1058 67.2323 60.6067 67.2323 61.1276C67.2323 72.0597 67.2373 82.9851 67.2273 93.9172C67.2223 96.1677 66.4048 97.8039 64.9252 98.8791C64.519 99.1729 64.1077 99.2931 63.6363 99.2931C49.7737 99.2798 35.9111 99.2864 22.0485 99.2664C21.5972 99.2664 21.2661 99.4534 20.9652 99.8407C20.0073 101.096 18.9942 102.265 18.0061 103.48C17.2889 104.362 16.5767 105.263 15.8495 106.138C15.2828 106.819 14.8063 107.614 14.2245 108.269C13.6026 108.97 13.0258 109.738 12.424 110.466C11.6968 111.34 10.9545 112.189 10.2272 113.063C9.84607 113.524 9.47994 113.998 9.09877 114.452C8.0004 115.768 6.94215 117.137 5.84879 118.459C4.91091 119.595 3.95798 120.703 3.04016 121.872C2.91478 122.032 2.77936 122.126 2.59881 122.126C2.10228 122.112 1.60074 122.112 1.10422 122.112C0.918648 122.112 0.818343 122.026 0.83339 121.758C0.838405 121.618 0.83339 121.478 0.83339 121.338C0.83339 106.365 0.83339 91.3862 0.83339 76.4138C0.83339 76.1934 0.838399 75.9731 0.843415 75.7527C1.49542 75.3787 2.14241 75.4855 2.78939 75.7927C2.93484 75.9998 2.86964 76.2535 2.86964 76.4873C2.87466 82.945 2.87465 89.4095 2.87465 95.8672C2.87465 96.5684 2.87466 96.5684 3.41632 96.5684C8.93326 96.5684 14.4502 96.5684 19.9672 96.5684C20.1176 96.5684 20.2681 96.5417 20.4486 96.6018C20.2781 96.5351 20.1327 96.5684 19.9872 96.5684C14.4552 96.5684 8.92323 96.5684 3.39124 96.5684C2.87465 96.5684 2.87465 96.5684 2.87465 95.8873C2.87465 89.2626 2.87465 82.6445 2.87465 76.0265C2.79441 75.6592 2.95491 75.4188 3.13045 75.185C4.03823 74.0097 4.99116 72.8944 5.92402 71.7525C6.80172 70.684 7.67941 69.6088 8.56212 68.5403C9.97646 66.824 11.3808 65.0877 12.7951 63.3714C13.8985 62.0291 14.9869 60.6734 16.0652 59.3044C16.4162 58.857 16.7272 58.296 17.2689 58.1958C17.4946 58.2426 17.7253 58.2226 17.951 58.2226C33.4285 58.2226 48.911 58.2226 64.3886 58.2226C65.3515 58.2226 65.186 58.2025 65.186 59.2911C65.191 71.4653 65.186 83.6462 65.186 95.8205C65.186 96.5618 65.186 96.5684 64.6193 96.5684C50.6514 96.5684 36.6835 96.5684 22.7156 96.5684C22.5852 96.5684 22.4498 96.5952 22.3896 96.5751C22.4698 96.5751 22.6253 96.5751 22.7808 96.5751C36.7186 96.5751 50.6564 96.5751 64.5942 96.5751C65.2512 96.5751 65.186 96.6486 65.186 95.8071C65.186 83.5461 65.186 71.2917 65.186 59.0306C65.186 58.2225 65.186 58.2226 64.5541 58.2226C49.0916 58.2226 33.6241 58.2226 18.1616 58.2226C17.9209 58.2226 17.6801 58.2426 17.4394 58.2025C17.2438 58.0823 17.2538 57.8886 17.3792 57.7284C17.9961 56.9804 18.5578 56.1657 19.25 55.5646Z" fill="#74FFFF"/>
<path d="M0.848443 44.4188C1.04404 44.4255 1.23964 44.4322 1.43524 44.4322C7.19293 44.4322 12.9506 44.4322 18.7033 44.4322C18.8838 44.4322 19.0644 44.4389 19.2449 44.4455C18.7083 45.2536 18.0764 45.9414 17.4795 46.6693C17.0933 47.1368 16.7172 47.631 16.3109 48.0718C15.7191 48.7128 15.1925 49.4675 14.6308 50.1553C13.7129 51.2772 12.765 52.3524 11.8673 53.5077C11.3407 54.1889 10.7338 54.7632 10.2724 55.5379C10.2523 55.5646 10.2323 55.598 10.2072 55.6247C9.99654 55.7783 9.76583 55.7516 9.54014 55.7516C6.88197 55.7516 4.21879 55.7516 1.56063 55.7516C1.30484 55.7516 1.03903 55.805 0.823364 55.5512C0.823364 52.0185 0.823364 48.4925 0.823364 44.9597C0.82838 44.7794 0.838412 44.5991 0.848443 44.4188Z" fill="#FEB7FE"/>
<path d="M19.2499 55.5646C18.7233 56.3794 18.0813 57.0271 17.4945 57.7617C17.4394 57.8285 17.3942 57.902 17.3441 57.9754C17.304 58.1624 17.1735 58.2292 17.0732 58.336C16.7272 58.7234 16.3811 59.104 16.0501 59.5181C14.9166 60.9539 13.7781 62.383 12.6045 63.7654C12.0729 64.3931 11.5663 65.0476 11.0447 65.6887C9.59027 67.4651 8.1358 69.2415 6.67631 71.0245C5.57794 72.3668 4.47455 73.7091 3.37618 75.0581C3.21067 75.2585 3.06021 75.4855 2.90473 75.7059C2.87965 75.8328 2.77935 75.7927 2.71916 75.8395C2.09224 75.7126 1.46531 75.746 0.838387 75.7527C0.838387 72.0797 0.833374 68.4067 0.833374 64.7404C1.29479 64.4465 1.78129 64.5935 2.25273 64.6336C2.53861 64.6603 2.73421 64.5801 2.93984 64.3263C4.81059 62.0558 6.66628 59.7652 8.54204 57.5013C9.09374 56.8335 9.57021 56.0187 10.2623 55.5646L10.2774 55.5446C11.5463 55.5513 12.8152 55.5579 14.0841 55.5579C15.8043 55.5579 17.5246 55.5579 19.2499 55.5646Z" fill="#FEB7FE"/>
<path d="M10.2623 55.558C9.78086 56.159 9.29937 56.76 8.8179 57.3611C8.74266 57.4546 8.65239 57.5347 8.57716 57.6282C8.0054 58.3427 7.45872 59.0907 6.86188 59.7719C5.9892 60.7602 5.18173 61.8421 4.31908 62.8371C3.84261 63.3847 3.3812 63.9657 2.9248 64.5534C2.74926 64.7804 2.58876 64.8673 2.32796 64.7871C1.84147 64.6469 1.33491 64.7604 0.838387 64.727C0.838387 61.6684 0.833374 58.6099 0.833374 55.5513C3.97302 55.5513 7.11768 55.5513 10.2623 55.558Z" fill="#FE96FD"/>
<path d="M50.1548 27.7835C48.0985 27.9037 46.0522 25.4596 46.0723 22.2874C46.0873 19.5627 47.6672 16.8247 50.205 16.8314C52.4268 16.8381 54.3026 19.0418 54.3126 22.3275C54.3226 25.7734 52.166 27.9238 50.1548 27.7835Z" fill="#4A21AA"/>
<path d="M82.459 27.7835C80.3926 27.9104 78.3514 25.4595 78.3664 22.3008C78.3764 19.5761 79.9463 16.8381 82.4891 16.8314C84.6858 16.8247 86.5867 18.9951 86.6017 22.3141C86.6218 25.7467 84.4852 27.9171 82.459 27.7835Z" fill="#4A21AA"/>
<path d="M13.7932 22.3208C13.6176 19.8032 15.2326 16.8247 17.8556 16.8381C20.2329 16.8514 21.9683 19.3157 21.9683 22.3275C21.9683 25.5798 19.9571 27.7836 17.8506 27.8036C15.5836 27.8236 13.6076 25.1524 13.7932 22.3208Z" fill="#4A21AA"/>
<path d="M17.0732 58.3294C17.1334 58.1691 17.2237 58.0489 17.3441 57.9688C17.3942 58.0489 17.4644 58.0823 17.5447 58.0823C17.6801 58.0823 17.8155 58.0823 17.9509 58.0823C33.4736 58.0823 49.0013 58.0823 64.524 58.0823C65.2813 58.0823 65.2361 58.0823 65.2361 59.0506C65.2361 71.3117 65.2361 83.5661 65.2361 95.8272C65.2361 96.682 65.2813 96.6152 64.6543 96.6152C50.5811 96.6152 36.5079 96.6152 22.4347 96.6152C22.2842 96.6152 22.1388 96.6152 21.9883 96.6152C22.1438 96.4549 22.3194 96.495 22.4798 96.495C36.4628 96.495 50.4457 96.495 64.4287 96.495C64.5791 96.495 64.7296 96.4883 64.88 96.495C65.0756 96.5017 65.1509 96.3681 65.1408 96.121C65.1358 95.9808 65.1408 95.8405 65.1408 95.7003C65.1408 83.4993 65.1408 71.305 65.1408 59.1041C65.1408 59.044 65.1408 58.9839 65.1408 58.9238C65.1358 58.3294 65.1358 58.3294 64.6844 58.3227C64.5791 58.3227 64.4738 58.3227 64.3685 58.3227C48.8007 58.3227 33.2279 58.3227 17.6601 58.3227C17.4645 58.3294 17.2688 58.3294 17.0732 58.3294Z" fill="#7FFFFF"/>
<path d="M2.71912 75.8261C2.7793 75.7794 2.8445 75.7393 2.90468 75.6926C2.9097 75.953 2.91472 76.2134 2.91472 76.4739C2.91472 82.8315 2.91472 89.1891 2.91472 95.5467C2.91472 95.6468 2.91472 95.747 2.91472 95.8472C2.91973 96.4883 2.91973 96.495 3.42127 96.495C3.55669 96.495 3.69211 96.495 3.82752 96.495C9.21908 96.495 14.6157 96.495 20.0072 96.495C20.1677 96.495 20.3382 96.4549 20.5138 96.5417C20.3784 96.6686 20.2429 96.6152 20.1176 96.6152C14.5254 96.6152 8.93822 96.6152 3.34604 96.6152C2.81441 96.6152 2.81441 96.6152 2.81441 95.8739C2.81441 94.7653 2.81441 93.6634 2.81441 92.5549C2.81441 87.2257 2.81441 81.8899 2.8094 76.5607C2.82444 76.3203 2.89967 76.0398 2.71912 75.8261Z" fill="#84FFFF"/>
</svg>
