<svg width="326" height="291" viewBox="0 0 326 291" fill="none" xmlns="http://www.w3.org/2000/svg">
<path d="M163 290.188C252.675 290.188 325.371 255.775 325.371 213.324C325.371 170.872 252.675 136.459 163 136.459C73.3246 136.459 0.628418 170.872 0.628418 213.324C0.628418 255.775 73.3246 290.188 163 290.188Z" fill="#F0F0F0"/>
<path d="M163 278.907C185.792 278.907 204.268 270.752 204.268 260.693C204.268 250.633 185.792 242.479 163 242.479C140.208 242.479 121.732 250.633 121.732 260.693C121.732 270.752 140.208 278.907 163 278.907Z" fill="#E0E0E0"/>
<path d="M49.9111 175.947L56.5719 172.462C56.5719 172.462 60.5467 157.55 58.9611 144.13C56.7312 125.269 42.9897 118.167 37.7624 119.795C32.5351 121.423 31.0219 126.911 39.6665 138.146C44.7852 144.778 51.055 158.584 49.9111 175.947Z" fill="#D955A7"/>
<path d="M49.9111 175.947L56.5719 172.462C56.5719 172.462 60.5467 157.55 58.9611 144.13C56.7312 125.269 42.9897 118.167 37.7624 119.795C32.5351 121.423 31.0219 126.911 39.6665 138.146C44.7852 144.778 51.055 158.584 49.9111 175.947Z" fill="black"/>
<path d="M52.6768 168.623H52.6116C52.4914 168.6 52.3856 168.537 52.3166 168.445C52.2477 168.354 52.221 168.241 52.2424 168.132C55.9058 150.729 49.1726 131.181 40.8394 123.045C40.7532 122.966 40.7049 122.859 40.7049 122.748C40.7049 122.637 40.7532 122.53 40.8394 122.45C40.8818 122.411 40.9325 122.38 40.9885 122.359C41.0444 122.337 41.1045 122.327 41.1652 122.327C41.2259 122.327 41.2859 122.337 41.3419 122.359C41.3978 122.38 41.4485 122.411 41.491 122.45C49.9763 130.736 56.8398 150.572 53.1257 168.23C53.1154 168.333 53.0644 168.43 52.982 168.502C52.8996 168.574 52.7913 168.617 52.6768 168.623Z" fill="white"/>
<path d="M32.4265 185.071C31.3695 185.555 28.5676 183.383 27.7857 182.86C26.4452 181.942 25.3882 180.728 24.7159 179.335C23.9685 177.755 23.7813 176.005 24.1801 174.326C24.397 173.437 24.68 172.563 25.0272 171.71L25.9829 169.179C26.3612 168.365 26.5533 167.491 26.5476 166.608C26.3956 164.842 24.7376 163.535 23.2317 162.403C21.5593 161.147 19.8434 159.519 19.9737 157.407C20.1898 155.773 20.9995 154.25 22.276 153.077C23.4706 151.848 24.8607 150.775 25.9467 149.473C26.7925 148.567 27.2724 147.428 27.3078 146.243C27.2407 145.513 27.0091 144.803 26.6273 144.156C25.9033 142.744 24.8607 141.429 24.3756 139.925C23.8905 138.421 24.0715 136.59 25.4037 135.589C26.5042 134.772 28.068 134.719 29.4798 134.87C30.8005 135.077 32.0555 135.541 33.1577 136.23C36.7777 138.264 38.6674 142.332 42.5263 143.947C44.0177 144.568 45.6757 144.771 47.2395 145.223C48.8034 145.674 50.3745 146.472 51.0405 147.839C52.3365 150.513 49.4767 153.607 50.3165 156.426C51.0405 158.917 53.6614 159.977 55.0225 162.253C55.5802 163.264 55.7606 164.411 55.5366 165.523C55.3021 167.392 54.6912 169.208 53.7338 170.879C52.6575 172.594 51.4655 174.247 50.1645 175.83L32.4265 185.071Z" fill="#D955A7"/>
<path d="M42.6421 180.257C42.5806 180.253 42.5205 180.238 42.4655 180.213C42.4105 180.187 42.3617 180.152 42.3219 180.11C42.2821 180.067 42.2521 180.018 42.2338 179.964C42.2154 179.911 42.209 179.855 42.215 179.799C43.9091 163.253 36.2782 144.549 30.2835 138.944C30.2411 138.905 30.2079 138.858 30.1855 138.807C30.1632 138.756 30.1522 138.701 30.1532 138.646C30.1542 138.591 30.1672 138.537 30.1914 138.486C30.2156 138.436 30.2506 138.39 30.2943 138.352C30.3381 138.314 30.3897 138.284 30.4463 138.264C30.5029 138.244 30.5633 138.234 30.6242 138.235C30.685 138.235 30.7451 138.247 30.8009 138.269C30.8567 138.291 30.9072 138.323 30.9495 138.362C37.0239 144.078 44.8359 163.096 43.1272 179.878C43.1162 179.986 43.0595 180.085 42.9691 180.156C42.8787 180.226 42.7616 180.263 42.6421 180.257Z" fill="white"/>
<path d="M40.8177 159.852C40.7745 159.859 40.7305 159.859 40.6873 159.852C36.3974 158.569 31.9639 157.715 27.4671 157.308C27.3453 157.297 27.2335 157.242 27.1562 157.156C27.0789 157.071 27.0423 156.961 27.0544 156.851C27.058 156.796 27.0739 156.742 27.1013 156.692C27.1287 156.643 27.1669 156.599 27.2137 156.564C27.2605 156.528 27.3148 156.502 27.3733 156.486C27.4318 156.47 27.4933 156.465 27.554 156.471C27.6264 156.471 35.0836 157.125 41.0059 159.087C41.121 159.126 41.2146 159.204 41.2662 159.304C41.3177 159.405 41.3231 159.519 41.281 159.624C41.238 159.699 41.1708 159.761 41.0882 159.802C41.0056 159.843 40.9114 159.861 40.8177 159.852Z" fill="white"/>
<path d="M137.428 183.318C134.387 183.148 130.572 183.181 127.176 185.169C121.645 188.406 116.519 192.84 115.339 194.403C114.159 195.966 112.682 195.149 111.306 192.18C110.583 190.561 110.378 188.791 110.713 187.072C111.048 185.353 111.911 183.753 113.203 182.455C116.005 179.734 118.778 177.641 119.842 175.836C120.907 174.031 125.808 173.416 128.769 173.763C128.769 173.763 129.783 173.652 130.789 173.58C135.292 173.259 142.069 171.481 142.069 171.481L145.124 183.403C145.124 183.403 140.476 183.514 137.428 183.318Z" fill="#FFA8A7"/>
<path d="M117.315 205.364C116.172 206.051 112.971 206.672 111.002 205.776C106.919 203.958 105.08 197.274 105.666 193.416C106.39 188.714 108.808 186.058 109.323 183.226C109.837 180.395 108.982 176.516 109.873 173.979C110.235 173.001 110.826 172.104 111.605 171.351C112.385 170.597 113.335 170.003 114.391 169.61C115.064 169.346 115.796 169.224 116.53 169.254C117.264 169.283 117.981 169.463 118.626 169.78L119.871 170.382L117.315 205.364Z" fill="#263238"/>
<path d="M107.694 194.259C107.846 189.099 112.943 185.012 112.103 180.074C111.263 175.136 113.478 168.256 120.928 170.676C122.324 171.111 123.675 171.654 124.968 172.298C125.509 172.63 126.113 172.869 126.749 173.004C127.527 173.092 128.314 173.081 129.088 172.972C129.435 172.893 129.797 172.875 130.152 172.919C130.324 172.947 130.481 173.027 130.597 173.146C130.713 173.265 130.78 173.415 130.789 173.573L128.834 173.75C128.674 173.752 128.517 173.798 128.385 173.881C128.052 174.136 128.385 174.613 128.385 175.006C128.429 175.575 127.857 176 127.336 176.314L125.352 177.628C124.682 177.969 124.059 178.382 123.498 178.858C123.325 179.047 123.064 179.616 123.448 179.76C123.831 179.904 124.99 179.296 125.374 179.165C125.599 179.068 125.85 179.029 126.098 179.054C126.518 179.119 126.764 179.505 126.959 179.845C127.484 180.858 128.274 181.741 129.261 182.415C130.079 182.858 130.968 183.183 131.897 183.377C131.964 183.392 132.026 183.421 132.078 183.462C132.111 183.492 132.135 183.53 132.147 183.571C132.158 183.613 132.157 183.656 132.143 183.697C132.099 183.81 132.03 183.914 131.939 184C131.848 184.087 131.737 184.156 131.614 184.201C130.226 184.908 128.798 185.55 127.336 186.124C126.156 186.595 124.541 187.281 123.81 188.295C123.32 188.988 122.942 189.742 122.688 190.532C122.316 191.828 122.074 193.153 121.964 194.488C121.717 196.49 121.45 198.491 121.124 200.479C121.005 201.5 120.732 202.501 120.313 203.455C118.959 206.215 115.245 206.685 112.552 205.162C111.228 204.462 110.143 203.446 109.417 202.225C107.853 199.714 107.614 196.738 107.694 194.259Z" fill="#455A64"/>
<path d="M122.145 195.247C122.105 195.293 122.056 195.33 122 195.358C121.79 195.476 121.645 195.358 121.5 195.253C121.142 194.943 120.757 194.659 120.349 194.403C119.61 193.936 118.816 193.543 117.982 193.233C116.851 192.801 115.659 192.513 114.441 192.376L114.072 192.343C113.924 192.333 113.786 192.272 113.688 192.172C113.589 192.071 113.537 191.941 113.543 191.807C113.555 191.675 113.622 191.552 113.731 191.464C113.841 191.377 113.984 191.331 114.13 191.336C114.956 191.388 115.774 191.519 116.57 191.728C118.292 192.137 119.91 192.843 121.334 193.808C121.71 194.063 122.246 194.384 122.275 194.861C122.282 194.999 122.236 195.136 122.145 195.247Z" fill="#FAFAFA"/>
<path d="M122.601 192.474C122.304 192.788 121.877 192.324 121.681 192.14C121.333 191.849 120.96 191.583 120.566 191.343C119.847 190.907 119.074 190.547 118.264 190.27C117.256 189.906 116.2 189.664 115.122 189.551H114.991C114.845 189.539 114.709 189.477 114.612 189.377C114.515 189.277 114.464 189.147 114.47 189.014C114.476 188.948 114.496 188.884 114.529 188.824C114.562 188.765 114.608 188.712 114.664 188.669C114.72 188.626 114.784 188.593 114.854 188.573C114.924 188.552 114.998 188.545 115.071 188.55C115.894 188.613 116.707 188.755 117.496 188.975C119.18 189.411 120.745 190.157 122.094 191.166C122.26 191.26 122.403 191.383 122.515 191.528C122.627 191.673 122.706 191.837 122.745 192.01C122.774 192.16 122.743 192.315 122.659 192.448C122.641 192.459 122.621 192.467 122.601 192.474Z" fill="#FAFAFA"/>
<path d="M123.281 189.858C123.223 189.911 123.151 189.949 123.071 189.969C122.832 190.035 122.702 189.806 122.564 189.668C122.427 189.531 122.239 189.374 122.072 189.237C121.74 188.964 121.386 188.713 121.015 188.485C120.333 188.069 119.605 187.718 118.843 187.438C117.947 187.09 117.009 186.838 116.049 186.686H115.998C115.925 186.677 115.855 186.656 115.791 186.622C115.728 186.589 115.672 186.544 115.628 186.491C115.584 186.438 115.551 186.378 115.533 186.314C115.514 186.25 115.51 186.183 115.52 186.117C115.543 185.985 115.623 185.866 115.742 185.787C115.861 185.707 116.01 185.673 116.157 185.692C116.997 185.816 117.821 186.014 118.619 186.281C120.267 186.792 121.777 187.612 123.05 188.687C123.262 188.836 123.431 189.029 123.542 189.25C123.578 189.35 123.578 189.457 123.542 189.557C123.507 189.637 123.456 189.711 123.39 189.773L123.281 189.858Z" fill="#FAFAFA"/>
<path d="M119.002 182.01C119.075 181.971 119.157 181.948 119.241 181.945C119.487 181.945 119.553 182.187 119.647 182.35C119.741 182.514 119.878 182.71 120.009 182.88C120.255 183.218 120.528 183.54 120.827 183.841C121.378 184.396 121.989 184.9 122.651 185.345C123.427 185.881 124.267 186.335 125.156 186.699H125.2C125.268 186.723 125.331 186.759 125.384 186.805C125.436 186.851 125.478 186.906 125.507 186.967C125.535 187.029 125.55 187.094 125.549 187.161C125.549 187.227 125.533 187.292 125.504 187.353C125.477 187.415 125.437 187.47 125.385 187.518C125.334 187.565 125.273 187.602 125.206 187.628C125.138 187.653 125.066 187.666 124.993 187.667C124.92 187.667 124.847 187.653 124.78 187.628C123.997 187.323 123.251 186.948 122.55 186.51C121.099 185.646 119.866 184.516 118.93 183.194C118.767 183.001 118.656 182.777 118.604 182.54C118.591 182.435 118.616 182.329 118.677 182.239C118.731 182.171 118.8 182.113 118.879 182.069L119.002 182.01Z" fill="#FAFAFA"/>
<path d="M107.679 195.195C107.6 197.624 108.168 200.036 109.337 202.225C110.063 203.446 111.148 204.462 112.472 205.162C115.151 206.685 118.879 206.215 120.233 203.455C120.652 202.501 120.925 201.5 121.044 200.479C121.182 199.629 121.312 198.772 121.428 197.915C117.055 193.206 109.424 194.436 107.679 195.195Z" fill="#FAFAFA"/>
<path d="M208.243 206.11C207.338 208.536 206.121 211.662 207.287 214.893C209.177 220.125 212.355 225.357 213.615 226.665C214.874 227.973 213.723 228.993 210.444 229.399C208.663 229.596 206.857 229.339 205.23 228.655C203.604 227.972 202.222 226.891 201.242 225.534C199.214 222.617 197.803 219.864 196.26 218.569C194.718 217.274 194.87 215.063 195.927 212.748C196.984 210.433 197.1 198 197.1 198L210.733 199.308C210.733 199.308 209.14 203.69 208.243 206.11Z" fill="#FFA8A7"/>
<path d="M194.212 218.17C194.009 218.773 193.929 219.404 193.973 220.034C194.096 220.831 195.573 222.368 196.565 223.166C197.972 224.307 198.87 225.872 199.091 227.568C199.652 230.31 201.221 232.801 203.544 234.637C206.651 236.88 210.437 238.218 214.404 238.476C219.32 238.888 220.464 236.514 220.464 236.514C220.464 236.514 221.427 234.232 220.377 233.571C219.327 232.911 194.212 218.17 194.212 218.17Z" fill="#263238"/>
<path d="M196.391 207.588C196.137 209.689 195.572 211.75 194.711 213.716C194.212 214.913 193.545 216.829 194.212 218.17C195.059 220.243 197.832 221.544 199.004 224.376C200.177 227.208 201.633 232.159 207.432 234.788C213.231 237.417 218.415 236.828 220.037 235.533C221.658 234.238 221.072 232.492 217.727 229.595C214.179 226.521 210.545 219.085 210.545 219.085C209.64 216.914 208.706 214.769 208.554 212.101L210.407 209.151C210.35 208.235 201.386 206.535 200.271 207.562L199.88 211.486L199.2 207.516L196.391 207.588Z" fill="#455A64"/>
<path d="M203.862 232.479C204.334 231.218 205.178 230.097 206.304 229.237C207.429 228.377 208.793 227.811 210.248 227.6C215.526 226.619 217.908 228.693 219.045 229.968C220.391 231.485 222.1 234.376 220.131 235.671C218.002 237.07 215.208 237.286 210.48 236.161C205.752 235.036 203.862 232.479 203.862 232.479Z" fill="#FAFAFA"/>
<path d="M201.495 217.98C201.578 217.999 201.664 217.999 201.747 217.982C201.83 217.965 201.907 217.931 201.973 217.882C202.697 217.359 206.824 215.724 209.821 217.352C210.096 217.058 209.93 216.639 209.372 216.11C206.042 214.985 202.132 216.508 201.256 217.143C201.152 217.223 201.088 217.336 201.077 217.459C201.066 217.582 201.11 217.703 201.198 217.797C201.273 217.884 201.377 217.949 201.495 217.98Z" fill="#FAFAFA"/>
<path d="M211.008 219.994C211.024 219.757 210.978 219.52 210.872 219.303C210.766 219.086 210.604 218.895 210.4 218.745C207.164 217.869 203.544 219.288 202.704 219.942C202.6 220.022 202.536 220.136 202.525 220.258C202.514 220.381 202.558 220.502 202.646 220.596C202.725 220.676 202.828 220.733 202.943 220.76C203.026 220.778 203.112 220.779 203.195 220.762C203.278 220.745 203.355 220.71 203.421 220.661C204.13 220.138 208.04 218.595 211.008 219.994Z" fill="#FAFAFA"/>
<path d="M209.017 214.932C209.105 214.833 209.167 214.718 209.2 214.595C209.233 214.472 209.237 214.344 209.21 214.22C209.183 214.095 209.127 213.978 209.045 213.875C208.963 213.772 208.857 213.687 208.735 213.624C205.26 211.898 200.771 213.624 199.808 214.324C199.756 214.363 199.713 214.411 199.682 214.466C199.651 214.52 199.632 214.579 199.626 214.64C199.621 214.701 199.629 214.762 199.65 214.82C199.672 214.879 199.706 214.932 199.75 214.978C199.829 215.059 199.932 215.116 200.047 215.142C200.129 215.16 200.215 215.161 200.297 215.145C200.38 215.129 200.458 215.097 200.525 215.05C201.307 214.488 206.005 212.65 209.017 214.932Z" fill="#FAFAFA"/>
<path d="M214.65 226.024C214.512 225.395 214.132 224.83 213.579 224.428C210.284 223.389 206.469 224.88 205.615 225.508C205.511 225.587 205.447 225.701 205.436 225.824C205.425 225.946 205.468 226.068 205.557 226.162C205.635 226.242 205.738 226.299 205.853 226.325C205.936 226.344 206.022 226.344 206.105 226.327C206.188 226.31 206.266 226.276 206.331 226.227C207.084 225.691 211.631 223.905 214.65 226.024Z" fill="#FAFAFA"/>
<path d="M204.391 223.546C204.474 223.564 204.56 223.565 204.643 223.548C204.726 223.531 204.803 223.496 204.869 223.447C205.593 222.924 209.626 221.335 212.616 222.872C212.607 222.615 212.533 222.364 212.4 222.137C212.267 221.911 212.078 221.715 211.848 221.564C208.619 220.688 204.992 222.12 204.152 222.728C204.048 222.808 203.984 222.922 203.973 223.044C203.962 223.167 204.006 223.288 204.094 223.382C204.173 223.462 204.276 223.519 204.391 223.546Z" fill="#FAFAFA"/>
<path d="M140.281 171.801L161.928 166.491C161.928 166.491 150.055 139.899 146.123 127.479C142.945 117.454 143.756 107.049 144.256 103.151C145.921 90.2669 187.37 101.13 187.37 101.13L190.505 101.653C198.765 117.826 213.036 137.904 221.724 153.973C224.402 158.924 224.127 160.513 221.724 169.165C218.27 181.356 215.128 187.68 210.357 200.322C207.128 200.871 199.562 200.571 197.093 198.465C196.746 186.202 194.371 172.69 202.697 161.108C194.067 152.724 185.415 142.796 176.792 133.379C178.443 140.232 183.67 162.75 183.547 172.527C183.467 178.668 181.143 183.168 173.78 183.704C163.543 184.443 141.077 183.704 141.077 183.704C138.862 182.422 138.261 174.816 140.281 171.801Z" fill="#455A64"/>
<path d="M161.928 166.491C161.928 166.491 163.043 171.52 166.055 174.391C164.219 173.454 162.64 172.155 161.436 170.591C159.575 168.08 150.757 170.8 143.865 170.925L161.928 166.491Z" fill="black"/>
<path d="M176.807 133.398L175.561 127.074C178.797 124.323 181.452 121.063 183.395 117.454C183.395 117.454 181.404 123.091 177.762 127.218L178.298 131.796L193.85 152.07L176.807 133.398Z" fill="black"/>
<path d="M196.76 178.034C197.656 175.044 198.771 172.112 200.098 169.257C201.359 166.81 203.146 164.614 205.354 162.796C204.393 162.339 203.501 161.774 202.697 161.115C198.86 166.451 197.303 172.2 196.76 178.034Z" fill="black"/>
<path d="M252.928 21.3811C252.637 21.2195 252.3 21.1406 251.959 21.1546C251.618 21.1686 251.29 21.2749 251.017 21.4595C250.422 21.7835 249.866 22.1627 249.359 22.591L246.303 24.9781C246.033 25.233 245.685 25.4104 245.304 25.4882C245.283 25.1748 245.181 24.8703 245.006 24.5989C244.831 24.3275 244.589 24.0968 244.298 23.9251C243.733 23.572 242.85 23.7028 242.408 23.2711C242.247 23.0776 242.136 22.8542 242.082 22.6171C241.431 20.956 239.367 20.5505 237.623 20.7728C238.68 17.9933 239.071 16.9404 239.86 14.4683C240.207 13.3238 240.171 12.0419 239.208 11.6561C237.76 11.0675 236.631 12.5782 236.023 13.9582C234.85 16.6265 234.032 18.1372 232.707 21.211C232.337 22.0612 231.664 23.2384 231.259 24.069C230.339 25.8544 228.565 27.339 228.312 29.301C228.24 30.1865 228.366 31.076 228.681 31.917C228.855 32.4664 228.992 32.9307 229.137 33.3623C229.709 35.1281 229.268 36.2465 228.109 39.0194C226.951 41.7924 220.775 54.4996 220.775 54.4996C220.775 54.4996 198.86 47.0963 191.75 44.5065C189.485 43.68 187.059 43.2777 184.617 43.3238C182.175 43.3698 179.769 43.8635 177.545 44.7747L192.481 61.589C192.481 61.589 216.974 67.5862 222.165 69.2212C227.233 70.8104 229.811 69.8752 233.206 61.3732C234.777 57.4492 235.639 54.565 237.333 49.4638C239.606 42.6557 239.143 42.9238 240.953 38.4636C241.228 37.7703 243.48 35.344 243.929 34.7357C244.7 33.6623 245.392 32.5437 245.999 31.3873C247.628 28.405 250.756 26.3188 252.725 23.5393C253.109 22.9376 253.623 21.9304 252.928 21.3811Z" fill="#FFA8A7"/>
<path d="M178.284 44.173C181.636 43.0188 185.274 42.7158 188.803 43.2966C192.51 44.0749 220.746 54.5127 220.746 54.5127C220.746 54.5127 224.924 63.0147 231.802 64.9767C231.802 64.9767 230.839 68.5606 227.87 69.7771C224.902 70.9935 219.182 68.8288 210.907 66.9583C202.632 65.0879 188.34 61.674 188.34 61.674L178.284 44.173Z" fill="#D955A7"/>
<path d="M178.284 44.173C181.636 43.0188 185.274 42.7158 188.803 43.2966C192.51 44.0749 220.746 54.5127 220.746 54.5127C220.746 54.5127 224.924 63.0147 231.802 64.9767C231.802 64.9767 230.839 68.5606 227.87 69.7771C224.902 70.9935 219.182 68.8288 210.907 66.9583C202.632 65.0879 188.34 61.674 188.34 61.674L178.284 44.173Z" fill="black"/>
<path d="M235.762 26.8027L234.097 27.9211C235.342 28.3854 235.827 29.458 236.775 30.2493C237.724 31.0406 239.346 32.9765 239.042 34.6049C239.479 34.0804 239.731 33.4492 239.766 32.7934C239.766 32.5383 239.679 32.0805 239.867 31.8581C240.055 31.6358 240.287 31.7143 240.526 31.6816C240.989 31.5933 241.422 31.4067 241.79 31.1372C242.158 30.8677 242.449 30.523 242.64 30.1316C243.028 29.3501 243.247 28.5087 243.284 27.6529C242.924 28.3545 242.434 28.9957 241.836 29.5495C241.366 30.0204 240.519 30.8575 239.715 30.5959C239.498 30.5306 239.303 30.4164 239.149 30.2643C238.994 30.1121 238.885 29.9269 238.832 29.7261C238.837 29.2083 238.986 28.7 239.266 28.2481L239.751 27.169C239.314 27.6478 238.771 28.0397 238.158 28.32C237.485 28.5881 235.653 28.4377 236.428 27.424C236.608 27.22 236.823 27.0433 237.065 26.9008C237.721 26.536 238.296 26.0635 238.759 25.5078C238.949 25.163 239.038 24.7805 239.02 24.396C239.02 24.0363 238.759 23.6897 238.745 23.3561C238.742 24.0262 238.469 24.6725 237.977 25.1743C237.491 25.6696 236.939 26.1089 236.334 26.4823L235.762 26.8027Z" fill="#F28F8F"/>
<path d="M237.195 21.9173C237.515 21.9309 237.818 22.0494 238.047 22.2505C238.276 22.4517 238.416 22.7216 238.441 23.0095C238.367 22.8762 238.252 22.7654 238.109 22.6909C237.966 22.6165 237.802 22.5817 237.637 22.591C237.29 22.591 237.022 22.8787 236.754 23.0553C236.02 23.593 235.157 23.9692 234.234 24.154C233.657 24.2265 233.086 24.3357 232.526 24.481C232.002 24.6511 231.523 24.9184 231.121 25.2658C231.218 25.0989 231.329 24.9392 231.454 24.7884C231.588 24.626 231.738 24.4749 231.903 24.3371C232.223 24.0541 232.593 23.8199 232.996 23.6439C233.865 23.2646 234.864 23.173 235.682 22.676C236.167 22.3817 236.609 21.9239 237.195 21.9173Z" fill="#F28F8F"/>
<path d="M220.746 54.5127L224.069 47.6196C224.835 49.8996 226.199 51.9787 228.046 53.68C229.893 55.3812 232.167 56.6541 234.676 57.3903C233.73 60.4255 232.589 63.4085 231.259 66.3239C231.259 66.3239 222.006 63.7145 220.746 54.5127Z" fill="#37474F"/>
<path d="M173.36 41.1515C176.691 43.2377 178.87 43.4274 182.57 44.8793C186.269 46.3312 192.611 47.1552 197.614 58.7637C202.617 70.3722 205.513 93.9881 203.262 104.047C203.262 104.047 196.861 81.4837 188.89 79.3778C184.189 78.1263 179.412 77.1175 174.584 76.3563L173.36 41.1515Z" fill="#455A64"/>
<path d="M171.529 46.1677C170.464 38.3981 167.532 26.6 147.637 28.9478C127.741 31.2957 132.838 41.2365 136.958 43.8002C141.077 46.3639 159.568 47.5084 162.761 52.1583C165.954 56.8082 171.529 46.1677 171.529 46.1677Z" fill="#D955A7"/>
<path d="M171.529 46.1677C170.464 38.3981 167.532 26.6 147.637 28.9478C127.741 31.2957 132.838 41.2365 136.958 43.8002C141.077 46.3639 159.568 47.5084 162.761 52.1583C165.954 56.8082 171.529 46.1677 171.529 46.1677Z" fill="black"/>
<path d="M131.144 112.339C131.144 112.339 141.475 99.7891 155.586 97.8598C169.697 95.9305 196.239 95.3158 203.269 104.047C203.269 104.047 202.95 52.4264 184.698 48.0381C184.698 48.0381 161.248 47.1094 153.349 59.0057C145.45 70.9019 131.904 94.8841 131.144 112.339Z" fill="#D955A7"/>
<path d="M131.144 112.339C131.144 112.339 141.475 99.7891 155.586 97.8598C169.697 95.9305 196.239 95.3158 203.269 104.047C203.269 104.047 202.95 52.4264 184.698 48.0381C184.698 48.0381 161.248 47.1094 153.349 59.0057C145.45 70.9019 131.904 94.8841 131.144 112.339Z" fill="black"/>
<path d="M143.256 62.982L144.342 72.5369L145.117 91.7973C144.176 96.9573 142.945 101.751 143.249 110.763C156.361 117.375 178.378 115.152 192.792 106.107C192.792 106.107 192.192 68.0636 190.085 58.9337C187.978 49.8039 184.358 46.8805 177.321 46.632C169.9 46.3639 160.307 46.7039 160.307 46.7039L152.039 48.1297C152.039 48.1297 143.343 59.8101 143.256 62.982Z" fill="#EBEBEB"/>
<path d="M173.36 41.1515C175.728 42.4268 184.271 46.5666 186.631 48.7052C184.076 47.8865 181.441 47.2865 178.761 46.9132C174.931 46.4489 174.055 46.6974 174.055 46.6974L173.36 41.1515Z" fill="#D955A7"/>
<path d="M163.861 61.5628C160.915 74.9044 147.933 87.4481 140.853 94.8514C135.995 99.9134 133.316 106.015 131.144 112.294C130.087 111.273 128.566 110.698 127.524 109.586C126.37 108.345 125.481 106.921 124.903 105.387C123.81 102.542 123.629 99.5014 123.643 96.4799C123.575 95.2021 123.751 93.9233 124.165 92.6998C124.621 91.5487 123.144 88.1806 124.034 87.2585C124.034 87.2585 130.166 85.0807 132.614 83.3345C137.37 79.8879 138.768 76.9318 139.665 69.9994C140.223 65.6634 140.665 61.4974 142.822 57.5734C144.661 54.2511 146.333 51.1773 149.852 49.2022C155.883 45.8145 161.928 50.6606 163.652 56.2131C163.999 57.4361 163.789 60.3006 163.861 61.5628Z" fill="#455A64"/>
<path d="M176.611 88.3899C181.527 95.2438 178.718 103.818 170.334 107.539L108.7 134.922C100.316 138.643 89.5356 136.099 84.6197 129.245C79.7037 122.391 82.5128 113.817 90.8967 110.096L152.524 82.7393C160.915 78.9985 171.688 81.536 176.611 88.3899Z" fill="#D955A7"/>
<path d="M177.045 89.953C181.961 96.8069 179.145 105.381 170.768 109.102L109.142 136.459C100.758 140.18 89.9773 137.643 85.0613 130.789C80.1453 123.935 82.9545 115.361 91.3384 111.64L152.965 84.2762C161.349 80.555 172.13 83.099 177.045 89.953Z" fill="#D955A7"/>
<path d="M177.045 89.953C181.961 96.8069 179.145 105.381 170.768 109.102L109.142 136.459C100.758 140.18 89.9773 137.643 85.0613 130.789C80.1453 123.935 82.9545 115.361 91.3384 111.64L152.965 84.2762C161.349 80.555 172.13 83.099 177.045 89.953Z" fill="black"/>
<path d="M123.65 123.405L123.607 123.477C123.593 123.529 123.593 123.582 123.607 123.634C123.604 123.66 123.604 123.686 123.607 123.712V123.752C123.625 123.772 123.647 123.79 123.672 123.804H123.774C123.809 123.814 123.847 123.814 123.882 123.804C123.909 123.808 123.935 123.808 123.962 123.804C124.002 123.788 124.038 123.766 124.07 123.739L124.172 123.647L124.208 123.608C124.232 123.583 124.252 123.554 124.266 123.523V123.451C124.269 123.429 124.269 123.407 124.266 123.385V123.32C124.266 123.32 124.266 123.32 124.266 123.268L124.215 123.228H123.998C124.004 123.214 124.004 123.198 123.998 123.183C123.904 123.052 123.556 123.235 123.65 123.372C123.629 123.399 123.643 123.399 123.65 123.405Z" fill="#D955A7"/>
<path d="M99.8309 132.234C99.7645 132.232 99.699 132.248 99.6427 132.28C99.5927 132.311 99.5508 132.351 99.5196 132.398C99.4689 132.47 99.4544 132.587 99.5703 132.626H99.6499C99.6357 132.674 99.6357 132.723 99.6499 132.77C99.6711 132.806 99.6881 132.843 99.7006 132.882C99.7271 132.941 99.7611 132.999 99.8019 133.052C99.8277 133.078 99.8605 133.098 99.8973 133.109C99.9342 133.121 99.9736 133.123 100.012 133.117C100.147 133.101 100.273 133.049 100.374 132.967C100.456 132.905 100.512 132.819 100.533 132.725C100.545 132.656 100.527 132.585 100.482 132.528C100.444 132.471 100.395 132.42 100.338 132.378C100.294 132.351 100.248 132.327 100.2 132.306C100.149 132.276 100.093 132.254 100.034 132.241L99.8309 132.234Z" fill="#D955A7"/>
<path d="M114.441 120.671C114.194 120.884 114.031 121.164 113.978 121.469C113.957 121.678 113.997 121.887 114.094 122.077C114.085 122.088 114.08 122.1 114.08 122.113C114.08 122.126 114.085 122.139 114.094 122.149C114.212 122.294 114.356 122.42 114.521 122.522C114.677 122.61 114.848 122.674 115.028 122.712C115.368 122.784 115.722 122.784 116.063 122.712C116.385 122.654 116.676 122.498 116.887 122.271C117.099 122.044 117.219 121.759 117.227 121.463C117.236 121.166 117.132 120.876 116.934 120.639C116.735 120.403 116.454 120.234 116.135 120.161C115.828 120.119 115.515 120.143 115.22 120.232C114.926 120.321 114.659 120.471 114.441 120.671ZM115.773 120.514C116.008 120.532 116.229 120.619 116.403 120.763C116.614 120.938 116.763 121.166 116.83 121.417C116.854 121.514 116.855 121.614 116.832 121.711C116.81 121.808 116.765 121.899 116.7 121.979L116.642 122.038L116.577 122.091L116.403 122.176H116.36L116.258 122.208C115.97 122.289 115.665 122.307 115.368 122.261C115.177 122.226 114.992 122.169 114.818 122.091C114.827 122.075 114.831 122.059 114.831 122.041C114.831 122.024 114.827 122.008 114.818 121.992C114.662 121.801 114.567 121.575 114.543 121.338C114.537 121.297 114.537 121.255 114.543 121.214V121.142C114.564 121.095 114.588 121.049 114.615 121.005L114.673 120.939C114.803 120.792 114.969 120.673 115.158 120.593C115.356 120.532 115.566 120.512 115.773 120.534V120.514Z" fill="#D955A7"/>
<path d="M123.404 112.817C123.356 112.862 123.326 112.921 123.318 112.983C123.31 113.046 123.325 113.109 123.361 113.163L123.6 113.484L123.013 113.798C122.971 113.819 122.937 113.85 122.913 113.889C122.89 113.927 122.88 113.97 122.883 114.014C122.889 114.031 122.898 114.048 122.912 114.062C122.925 114.076 122.941 114.088 122.96 114.096C122.978 114.104 122.998 114.108 123.019 114.109C123.039 114.109 123.06 114.106 123.079 114.099L123.853 113.817C123.954 113.945 124.065 114.065 124.186 114.177C124.244 114.236 124.367 114.177 124.411 114.144C124.444 114.123 124.468 114.092 124.48 114.056C124.491 114.021 124.49 113.983 124.476 113.948L124.309 113.647L124.498 113.562L124.715 113.477C124.809 113.439 124.897 113.388 124.975 113.327C125.135 113.203 125.098 112.869 124.809 112.921C124.61 112.977 124.42 113.056 124.244 113.157L124.049 113.255L123.745 112.817C123.672 112.686 123.484 112.745 123.404 112.817Z" fill="#D955A7"/>
<path d="M110.148 112.032C110.097 112.075 110.064 112.132 110.056 112.195C110.048 112.257 110.065 112.32 110.104 112.372C110.177 112.483 110.256 112.588 110.336 112.699L109.757 113.006C109.713 113.025 109.676 113.056 109.653 113.095C109.63 113.134 109.62 113.178 109.627 113.222C109.63 113.24 109.639 113.258 109.651 113.273C109.663 113.288 109.679 113.3 109.697 113.309C109.715 113.317 109.735 113.322 109.755 113.323C109.776 113.324 109.796 113.321 109.815 113.314L110.59 113.033C110.692 113.159 110.803 113.279 110.923 113.392C110.98 113.445 111.104 113.392 111.147 113.353C111.18 113.333 111.205 113.303 111.217 113.269C111.229 113.234 111.227 113.197 111.212 113.163C111.161 113.059 111.104 112.954 111.046 112.856L111.241 112.778L111.451 112.686C111.547 112.65 111.635 112.599 111.712 112.536C111.871 112.411 111.835 112.078 111.545 112.137C111.348 112.189 111.161 112.266 110.988 112.366L110.792 112.464L110.481 112.032C110.38 111.888 110.199 111.921 110.148 112.032Z" fill="#D955A7"/>
<path d="M90.5999 131.521C90.7157 131.569 90.8417 131.594 90.9691 131.593C91.1658 131.565 91.3534 131.499 91.5195 131.399C91.6856 131.3 91.8262 131.17 91.9321 131.018C92.2318 130.569 92.3756 130.05 92.3447 129.527C92.3447 129.252 92.3447 128.984 92.3447 128.709C92.7512 128.567 93.1189 128.348 93.4226 128.066C93.7263 127.783 93.9588 127.445 94.1041 127.074C94.3381 126.368 94.2927 125.61 93.9757 124.931C93.6586 124.252 93.0896 123.694 92.3665 123.353C92.023 123.222 91.6531 123.158 91.2805 123.163C91.2785 123.139 91.2785 123.115 91.2805 123.091C91.0837 122.43 90.615 121.862 89.97 121.502C88.5727 120.979 88.1455 123.098 88.522 123.765C88.6234 123.954 88.9781 123.765 88.9637 123.608C88.8749 123.148 88.9072 122.675 89.0578 122.228C89.2243 121.875 89.4922 121.764 89.8759 122.051C90.26 122.368 90.5469 122.769 90.7085 123.215C90.0066 123.299 89.3216 123.473 88.6741 123.732C88.1165 123.971 87.6429 124.344 87.3057 124.811C87.1888 124.994 87.0918 125.187 87.0161 125.387C86.7759 125.87 86.7499 126.417 86.9437 126.917C87.168 127.48 87.5771 127.969 88.1166 128.317C88.3101 128.435 88.5134 128.54 88.7247 128.631C88.8188 128.677 88.9014 128.741 88.9673 128.817C89.0333 128.894 89.0813 128.981 89.1085 129.075C89.3257 129.579 89.5501 130.076 89.7673 130.579C89.8443 130.794 89.9619 130.996 90.1148 131.175C90.247 131.32 90.4125 131.439 90.5999 131.521ZM91.628 123.896C92.2544 124.081 92.7872 124.462 93.1309 124.97C93.4745 125.478 93.6065 126.08 93.5031 126.669C93.4407 126.974 93.2947 127.261 93.0786 127.503C92.8624 127.746 92.5828 127.935 92.2651 128.055C92.1782 127.329 92.0407 126.603 91.9248 125.877C91.809 125.151 91.7004 124.569 91.5121 123.915L91.628 123.896ZM87.646 127.074C87.582 126.977 87.531 126.874 87.4939 126.767C87.4062 126.375 87.4473 125.969 87.6119 125.598C87.7766 125.228 88.0577 124.909 88.4207 124.68C89.113 124.157 89.9801 123.86 90.8823 123.837L90.9257 123.994C91.1212 124.713 91.1863 125.446 91.3094 126.178C91.4325 126.911 91.5556 127.571 91.6352 128.271C91.3838 128.327 91.1266 128.36 90.8678 128.369C90.5619 128.38 90.2557 128.358 89.9555 128.304C89.0399 128.176 88.2133 127.736 87.646 127.074ZM91.6931 128.912C91.6896 128.962 91.6896 129.012 91.6931 129.062C91.7381 129.529 91.699 130 91.5773 130.455C91.554 130.593 91.4784 130.719 91.3635 130.812C91.2486 130.905 91.1016 130.959 90.9474 130.965C90.8276 130.953 90.7131 130.913 90.6145 130.85C90.5159 130.787 90.4362 130.703 90.3827 130.606C90.1875 130.34 90.0226 130.057 89.8904 129.762C89.8252 129.612 89.7673 129.455 89.7166 129.304C89.6659 129.154 89.5646 129.049 89.637 128.944C90.3158 129.085 91.0229 129.07 91.6931 128.899V128.912Z" fill="#D955A7"/>
<path d="M101.228 113.674H101.185C101.151 113.667 101.117 113.667 101.083 113.674H101.04C101.002 113.681 100.965 113.694 100.931 113.713C100.902 113.724 100.875 113.74 100.852 113.759L100.924 113.719C100.826 113.763 100.743 113.831 100.685 113.916C100.659 113.954 100.639 113.996 100.627 114.04C100.624 114.057 100.624 114.075 100.627 114.092C100.624 114.118 100.624 114.145 100.627 114.171V114.216C100.633 114.229 100.642 114.24 100.653 114.249C100.665 114.258 100.678 114.265 100.692 114.269C100.711 114.275 100.732 114.275 100.75 114.269C100.781 114.275 100.814 114.275 100.844 114.269H101.033L101.112 114.229L101.185 114.184C101.209 114.169 101.229 114.149 101.243 114.125C101.244 114.107 101.244 114.09 101.243 114.072C101.25 114.051 101.25 114.028 101.243 114.007V113.916C101.249 113.887 101.249 113.859 101.243 113.83C101.25 113.778 101.245 113.724 101.228 113.674Z" fill="#D955A7"/>
<path d="M134.648 100.986C134.648 100.888 134.706 100.783 134.735 100.685C134.764 100.587 134.793 100.424 134.815 100.293C134.836 100.162 134.815 100.208 134.815 100.168C134.822 100.125 134.822 100.081 134.815 100.038C134.809 100.021 134.809 100.002 134.815 99.9853C134.818 99.944 134.818 99.9024 134.815 99.8611C134.815 99.776 134.699 99.7303 134.612 99.7433C134.553 99.7526 134.498 99.7739 134.45 99.8057C134.403 99.8375 134.364 99.8788 134.337 99.9265C134.301 99.9984 134.243 100.057 134.214 100.129L134.17 100.28C134.167 100.336 134.167 100.393 134.17 100.45L134.105 100.764C134.105 100.881 134.04 101.006 134.025 101.13V101.261L133.881 101.319L132.165 101.973C132.201 101.902 132.237 101.83 132.266 101.758V101.692C132.266 101.646 132.317 101.607 132.338 101.561C132.396 101.462 132.447 101.359 132.491 101.254C132.509 101.192 132.509 101.127 132.491 101.064C132.484 101.035 132.47 101.008 132.45 100.984C132.43 100.96 132.404 100.941 132.375 100.927C132.325 100.914 132.272 100.914 132.223 100.927C132.223 100.927 132.223 100.927 132.157 100.927C132.111 100.945 132.069 100.972 132.034 101.006L131.969 101.064C131.925 101.123 131.887 101.184 131.853 101.248C131.795 101.365 131.745 101.483 131.694 101.601C131.65 101.681 131.614 101.764 131.586 101.849C131.536 101.974 131.505 102.103 131.491 102.235C131.071 102.399 130.644 102.569 130.246 102.765V102.719C130.311 102.621 130.376 102.529 130.434 102.425C130.523 102.27 130.586 102.105 130.623 101.934C130.627 101.909 130.625 101.884 130.616 101.86C130.607 101.836 130.592 101.814 130.572 101.797C130.53 101.773 130.481 101.761 130.431 101.761C130.381 101.761 130.332 101.773 130.29 101.797C130.238 101.823 130.194 101.859 130.159 101.902C130.159 101.902 130.159 101.902 130.159 101.954C130.159 101.987 130.159 102.006 130.159 101.954C130.13 101.994 130.103 102.035 130.08 102.078C130.077 102.093 130.077 102.109 130.08 102.124C129.986 102.248 129.92 102.385 129.841 102.516C129.637 102.795 129.508 103.113 129.464 103.445C129.464 103.463 129.469 103.48 129.479 103.495C129.49 103.51 129.504 103.522 129.522 103.53C129.553 103.566 129.596 103.592 129.645 103.602C129.776 103.651 129.916 103.678 130.058 103.68H130.362C130.565 103.68 130.767 103.7 130.97 103.739H131.274C131.32 103.746 131.366 103.746 131.412 103.739C131.486 103.737 131.559 103.717 131.622 103.68C131.674 103.669 131.723 103.649 131.767 103.622C131.861 103.556 131.969 103.445 131.948 103.334L131.832 103.164C131.787 103.132 131.746 103.097 131.709 103.059L131.586 103.007H131.462C131.269 102.968 131.073 102.942 130.876 102.928H130.724C131.1 102.778 131.448 102.608 131.817 102.457H132.143C132.316 102.466 132.488 102.488 132.657 102.523C132.816 102.562 132.983 102.575 133.142 102.614C133.23 102.646 133.323 102.661 133.417 102.66H133.569C133.634 102.66 133.736 102.614 133.714 102.556C133.692 102.497 133.656 102.484 133.627 102.444C133.603 102.41 133.567 102.382 133.526 102.366L133.258 102.255C133.039 102.214 132.814 102.203 132.592 102.222H132.541L133.989 101.62L134.12 101.568C134.231 101.603 134.349 101.623 134.467 101.627H134.677L134.959 101.686C135.119 101.725 135.285 101.718 135.452 101.745L136.103 101.888C136.204 101.916 136.309 101.932 136.415 101.934C136.534 101.934 136.653 101.923 136.769 101.902C136.769 101.902 136.871 101.856 136.849 101.823C136.788 101.753 136.711 101.695 136.625 101.653C136.524 101.599 136.417 101.555 136.306 101.522L135.647 101.28C135.519 101.221 135.386 101.17 135.249 101.13H135.126C136.139 100.702 137.127 100.229 138.087 99.7106C138.312 99.5929 138.254 99.2855 137.971 99.436C136.887 100.004 135.77 100.522 134.626 100.986H134.648Z" fill="#D955A7"/>
<path d="M135.119 119.671L135.169 119.631H135.213L135.307 119.579L135.502 119.468C135.661 119.688 135.843 119.894 136.045 120.083C136.168 120.187 136.415 119.991 136.371 119.88C136.272 119.653 136.151 119.434 136.009 119.226L136.096 119.187C136.235 119.139 136.367 119.076 136.487 118.997C136.542 118.956 136.584 118.902 136.606 118.84C136.627 118.779 136.629 118.713 136.61 118.65C136.596 118.594 136.56 118.544 136.508 118.51C136.456 118.476 136.392 118.461 136.328 118.467C136.169 118.501 136.017 118.558 135.879 118.637L135.669 118.742L135.546 118.565C135.502 118.488 135.449 118.416 135.387 118.35C135.359 118.325 135.326 118.306 135.289 118.295C135.253 118.283 135.213 118.28 135.175 118.284C135.137 118.289 135.1 118.301 135.067 118.32C135.035 118.339 135.008 118.365 134.988 118.395C134.815 118.611 134.988 118.827 135.169 119.049C135.094 119.096 135.024 119.149 134.959 119.206L134.822 119.337C134.706 119.461 134.561 119.684 134.67 119.841C134.682 119.846 134.696 119.848 134.71 119.848C134.723 119.848 134.737 119.846 134.749 119.841C134.821 119.837 134.89 119.82 134.954 119.791C135.017 119.762 135.074 119.721 135.119 119.671Z" fill="#D955A7"/>
<path d="M114.789 126.943L114.847 126.904L114.941 126.845L115.143 126.74C115.297 126.962 115.48 127.166 115.687 127.349C115.81 127.46 116.049 127.257 116.005 127.152C115.912 126.923 115.791 126.703 115.643 126.498L115.737 126.453C115.878 126.409 116.01 126.345 116.128 126.263C116.182 126.223 116.223 126.169 116.243 126.109C116.264 126.048 116.264 125.984 116.244 125.923C116.23 125.866 116.194 125.815 116.142 125.78C116.09 125.746 116.026 125.729 115.962 125.733C115.803 125.769 115.652 125.827 115.513 125.903L115.303 126.008L115.187 125.838C115.141 125.762 115.087 125.69 115.028 125.622C115.001 125.597 114.968 125.578 114.932 125.566C114.895 125.554 114.856 125.55 114.818 125.554C114.779 125.557 114.743 125.569 114.71 125.588C114.677 125.606 114.65 125.632 114.629 125.661C114.448 125.877 114.629 126.1 114.81 126.315L114.593 126.479C114.544 126.519 114.498 126.563 114.456 126.61C114.347 126.734 114.195 126.95 114.311 127.113C114.322 127.118 114.335 127.12 114.347 127.12C114.36 127.12 114.372 127.118 114.383 127.113C114.46 127.111 114.536 127.095 114.605 127.066C114.675 127.037 114.738 126.995 114.789 126.943Z" fill="#D955A7"/>
<path d="M146.659 109.488C146.659 109.383 146.717 109.285 146.739 109.181C146.776 109.054 146.803 108.925 146.818 108.795V108.664C146.826 108.621 146.826 108.576 146.818 108.533C146.815 108.518 146.815 108.502 146.818 108.487C146.815 108.444 146.815 108.4 146.818 108.357C146.818 108.278 146.703 108.232 146.609 108.245C146.552 108.256 146.5 108.277 146.453 108.307C146.407 108.338 146.369 108.377 146.341 108.422C146.295 108.49 146.254 108.559 146.218 108.631L146.174 108.782C146.155 108.835 146.141 108.89 146.131 108.945C146.131 109.05 146.131 109.154 146.073 109.259C146.015 109.364 146.008 109.501 145.986 109.625C145.99 109.669 145.99 109.713 145.986 109.756L145.848 109.815L144.132 110.469C144.169 110.397 144.205 110.319 144.234 110.247C144.235 110.225 144.235 110.203 144.234 110.181L144.299 110.05C144.364 109.954 144.415 109.851 144.451 109.743C144.473 109.681 144.473 109.615 144.451 109.553C144.443 109.526 144.428 109.5 144.408 109.477C144.388 109.455 144.363 109.436 144.335 109.423C144.283 109.41 144.228 109.41 144.176 109.423C144.176 109.423 144.176 109.423 144.118 109.423C144.069 109.441 144.025 109.468 143.988 109.501L143.93 109.56C143.881 109.618 143.842 109.682 143.814 109.75C143.756 109.861 143.698 109.978 143.647 110.096L143.539 110.351C143.496 110.475 143.465 110.602 143.445 110.731C143.025 110.901 142.598 111.064 142.199 111.26V111.221L142.388 110.927C142.475 110.772 142.538 110.607 142.576 110.436C142.576 110.397 142.576 110.319 142.518 110.299C142.476 110.275 142.427 110.263 142.377 110.263C142.327 110.263 142.278 110.275 142.236 110.299C142.184 110.325 142.142 110.364 142.112 110.41C142.11 110.425 142.11 110.441 142.112 110.456C142.082 110.493 142.055 110.532 142.033 110.574C142.033 110.574 142.033 110.613 141.997 110.613C141.91 110.737 141.845 110.881 141.765 111.012C141.56 111.29 141.431 111.608 141.388 111.94C141.39 111.958 141.395 111.975 141.406 111.99C141.416 112.004 141.43 112.017 141.446 112.025C141.482 112.06 141.527 112.087 141.577 112.104C141.707 112.148 141.844 112.172 141.982 112.176H142.286C142.49 112.184 142.693 112.201 142.894 112.228L143.097 112.261H143.343C143.415 112.254 143.484 112.234 143.546 112.202L143.698 112.143C143.792 112.078 143.901 111.967 143.879 111.855C143.857 111.744 143.799 111.738 143.763 111.679C143.715 111.649 143.671 111.614 143.633 111.574C143.597 111.553 143.558 111.535 143.517 111.522H143.394C143.198 111.486 143 111.46 142.8 111.443H142.655C143.032 111.293 143.38 111.129 143.749 110.979H143.857C143.925 110.973 143.993 110.973 144.06 110.979C144.234 110.981 144.407 111.003 144.574 111.044C144.733 111.044 144.9 111.09 145.059 111.129C145.146 111.163 145.24 111.181 145.334 111.182H145.479C145.544 111.182 145.653 111.143 145.631 111.077C145.604 111.037 145.572 111 145.537 110.966C145.513 110.933 145.481 110.907 145.443 110.887L145.175 110.776C145.007 110.709 144.829 110.663 144.646 110.639H144.589L146.037 110.044L146.167 109.992C146.279 110.026 146.396 110.043 146.514 110.044H146.717C146.818 110.044 146.913 110.083 147.007 110.103C147.101 110.122 147.333 110.103 147.492 110.162L148.143 110.299C148.247 110.329 148.354 110.347 148.462 110.351C148.581 110.348 148.7 110.335 148.817 110.312C148.817 110.312 148.911 110.273 148.889 110.24C148.829 110.17 148.756 110.11 148.672 110.063C148.568 110.011 148.459 109.967 148.346 109.933L147.695 109.691C147.564 109.633 147.428 109.585 147.289 109.547C147.251 109.544 147.212 109.544 147.173 109.547C148.186 109.122 149.175 108.65 150.134 108.134C150.359 108.01 150.294 107.703 150.011 107.853C148.929 108.425 147.812 108.943 146.666 109.403L146.659 109.488Z" fill="#D955A7"/>
<path d="M131.868 97.1208C131.868 97.0227 131.919 96.9181 131.948 96.82C131.977 96.7219 132.005 96.5583 132.027 96.4276C132.049 96.2968 132.027 96.3425 132.027 96.3033C132.034 96.2599 132.034 96.2159 132.027 96.1725C132.021 96.1555 132.021 96.1372 132.027 96.1202C132.031 96.0788 132.031 96.0373 132.027 95.9959C132.027 95.9109 131.911 95.8651 131.824 95.8782C131.767 95.8864 131.712 95.9073 131.665 95.9393C131.618 95.9713 131.581 96.0132 131.557 96.0613C131.508 96.126 131.464 96.1937 131.426 96.2641L131.383 96.4145C131.367 96.4705 131.355 96.5273 131.347 96.5845L131.281 96.8984C131.281 97.0162 131.216 97.1404 131.202 97.2647V97.3955L131.057 97.4478C130.492 97.6767 129.913 97.8991 129.341 98.1018L129.45 97.886V97.8206L129.522 97.6898C129.579 97.5898 129.63 97.4872 129.674 97.3824C129.692 97.3202 129.692 97.2549 129.674 97.1927C129.667 97.1636 129.653 97.1361 129.633 97.1124C129.613 97.0886 129.588 97.0692 129.558 97.0554C129.509 97.0425 129.456 97.0425 129.406 97.0554H129.319C129.274 97.0755 129.233 97.102 129.196 97.1339L129.131 97.1927C129.084 97.2491 129.045 97.3106 129.015 97.3759C128.957 97.4936 128.907 97.6113 128.856 97.729C128.812 97.809 128.776 97.8922 128.747 97.9775C128.698 98.1021 128.667 98.2317 128.653 98.3634C128.233 98.5269 127.806 98.6969 127.408 98.8931V98.8474C127.473 98.7493 127.538 98.6512 127.596 98.5531C127.685 98.3985 127.748 98.2334 127.785 98.0626C127.789 98.0377 127.787 98.0122 127.778 97.9883C127.769 97.9644 127.754 97.9428 127.734 97.9252C127.691 97.9015 127.643 97.8889 127.593 97.8889C127.543 97.8889 127.494 97.9015 127.451 97.9252C127.402 97.9512 127.36 97.987 127.328 98.0299C127.328 98.0299 127.328 98.0626 127.328 98.0822C127.328 98.1149 127.328 98.1018 127.328 98.0822C127.295 98.1174 127.268 98.1571 127.249 98.1999C127.248 98.2151 127.248 98.2304 127.249 98.2457C127.155 98.3699 127.09 98.5073 127.01 98.6381C126.806 98.9168 126.677 99.2349 126.633 99.5668C126.633 99.5845 126.638 99.6019 126.648 99.617C126.659 99.6321 126.674 99.6442 126.691 99.6518C126.722 99.6879 126.765 99.7133 126.814 99.7237C126.946 99.7698 127.086 99.7963 127.227 99.8022H127.531C127.734 99.8022 127.937 99.8218 128.139 99.8611H128.581C128.655 99.8586 128.728 99.8383 128.791 99.8022C128.843 99.7921 128.893 99.772 128.936 99.7433C129.03 99.6779 129.138 99.5668 129.117 99.4556L129.001 99.2855C128.955 99.2536 128.913 99.2162 128.878 99.1744L128.755 99.1286L128.632 99.0959C128.438 99.0623 128.242 99.0383 128.045 99.0239H127.9C128.27 98.8735 128.624 98.7035 128.994 98.5531H129.298C129.471 98.5616 129.643 98.5834 129.812 98.6185C129.971 98.6577 130.138 98.6708 130.297 98.71C130.384 98.7413 130.478 98.7568 130.572 98.7558H130.724C130.789 98.7558 130.89 98.71 130.869 98.6512C130.848 98.6092 130.819 98.5714 130.782 98.54C130.757 98.5054 130.722 98.4781 130.681 98.4615C130.595 98.4179 130.505 98.3807 130.413 98.3503C130.244 98.2828 130.066 98.2344 129.884 98.2064H129.833L131.281 97.6048L131.412 97.5524C131.526 97.5884 131.646 97.6082 131.767 97.6113H131.991L132.273 97.6702C132.433 97.7029 132.599 97.6702 132.766 97.729L133.417 97.8729C133.518 97.9008 133.623 97.9162 133.729 97.9187C133.848 97.9194 133.967 97.9062 134.083 97.8794C134.12 97.8794 134.185 97.8402 134.163 97.8075C134.102 97.7376 134.025 97.6797 133.939 97.6375C133.838 97.5834 133.731 97.5395 133.62 97.5067L132.961 97.2647C132.833 97.2051 132.7 97.1548 132.563 97.1143H132.44C133.453 96.6869 134.441 96.2132 135.401 95.6951C135.625 95.5774 135.568 95.2634 135.285 95.4204C134.214 95.9894 133.113 96.493 131.94 96.9704L131.868 97.1208Z" fill="#D955A7"/>
<path d="M151.271 85.0283L150.388 85.4207C151.698 87.4939 152.987 89.5802 154.218 91.6926C156.281 95.2438 159.17 98.8081 159.691 102.745C159.872 104.106 159.966 106.787 157.707 107.009C156.028 107.173 154.211 106.159 152.936 105.361C151.3 104.334 150.04 103.02 148.339 102.039C146.413 100.934 144.277 100.077 142.453 98.8474C140.382 97.4543 138.782 95.4793 137.254 93.7135C136.748 93.1249 136.248 92.5297 135.77 91.9084L134.909 92.2943C135.321 92.8502 135.749 93.3995 136.197 93.9424C137.6 95.7691 139.203 97.4629 140.983 98.9978C142.815 100.463 145.088 101.424 147.209 102.562C148.277 103.116 149.275 103.774 150.185 104.524C150.846 105.105 151.553 105.643 152.299 106.133C153.747 107.049 155.543 108.023 157.418 108.03C159.293 108.036 160.314 106.722 160.553 105.335C161.393 101.123 158.649 97.0881 156.339 93.3865C154.609 90.6266 152.987 87.834 151.271 85.0283Z" fill="#D955A7"/>
<path d="M155.883 111.463C155.883 111.358 155.941 111.26 155.963 111.156C155.997 111.028 156.023 110.9 156.042 110.77C156.046 110.726 156.046 110.683 156.042 110.639C156.053 110.596 156.053 110.551 156.042 110.508C156.038 110.501 156.035 110.493 156.035 110.485C156.035 110.477 156.038 110.469 156.042 110.462C156.039 110.419 156.039 110.375 156.042 110.332C156.042 110.253 155.926 110.207 155.832 110.22C155.776 110.23 155.723 110.251 155.676 110.281C155.63 110.312 155.592 110.351 155.564 110.397C155.516 110.463 155.475 110.533 155.441 110.606C155.42 110.655 155.403 110.705 155.391 110.757C155.375 110.811 155.363 110.865 155.354 110.92C155.354 111.025 155.318 111.129 155.297 111.234C155.275 111.339 155.231 111.476 155.21 111.6V111.731L155.072 111.79L153.349 112.444L153.458 112.222V112.189C153.471 112.168 153.483 112.146 153.494 112.124L153.559 111.993C153.624 111.897 153.675 111.793 153.711 111.685C153.733 111.624 153.733 111.557 153.711 111.496C153.701 111.467 153.686 111.441 153.664 111.419C153.643 111.396 153.617 111.378 153.588 111.365C153.538 111.352 153.486 111.352 153.436 111.365C153.436 111.365 153.436 111.365 153.378 111.365C153.329 111.383 153.285 111.41 153.248 111.443L153.19 111.502C153.141 111.56 153.102 111.624 153.074 111.692C153.016 111.803 152.958 111.921 152.907 112.039C152.857 112.156 152.828 112.209 152.799 112.294C152.756 112.418 152.725 112.544 152.705 112.673C152.285 112.843 151.858 113.006 151.459 113.203V113.163C151.517 113.065 151.582 112.967 151.648 112.869C151.736 112.715 151.797 112.55 151.829 112.379C151.835 112.354 151.834 112.328 151.825 112.303C151.816 112.279 151.8 112.258 151.778 112.241C151.736 112.218 151.687 112.205 151.637 112.205C151.587 112.205 151.538 112.218 151.496 112.241C151.444 112.268 151.402 112.306 151.372 112.352C151.37 112.368 151.37 112.383 151.372 112.398C151.372 112.437 151.372 112.431 151.372 112.398C151.339 112.433 151.312 112.473 151.293 112.516V112.555C151.206 112.679 151.134 112.823 151.054 112.954C150.851 113.233 150.724 113.551 150.685 113.883C150.684 113.9 150.688 113.917 150.697 113.932C150.706 113.947 150.719 113.959 150.735 113.968C150.769 114.003 150.811 114.03 150.858 114.046C150.991 114.09 151.13 114.115 151.271 114.118H151.575C151.779 114.126 151.982 114.144 152.183 114.171L152.386 114.203H152.625C152.699 114.198 152.771 114.178 152.835 114.144C152.886 114.132 152.935 114.112 152.98 114.086C153.074 114.02 153.19 113.909 153.161 113.798L153.052 113.621C153.004 113.592 152.96 113.556 152.922 113.517L152.806 113.464H152.676C152.482 113.428 152.286 113.402 152.089 113.386H151.944L153.038 112.921H153.139C153.209 112.915 153.279 112.915 153.349 112.921C153.522 112.927 153.695 112.949 153.863 112.987C154.022 113.02 154.189 113.033 154.348 113.072C154.432 113.108 154.523 113.126 154.616 113.124H154.768C154.833 113.124 154.942 113.085 154.913 113.02C154.884 112.954 154.855 112.948 154.826 112.908C154.8 112.877 154.768 112.851 154.732 112.83L154.464 112.719C154.293 112.65 154.113 112.604 153.928 112.581H153.877L155.325 111.986L155.456 111.934C155.57 111.968 155.69 111.985 155.811 111.986H155.76H155.905L156.187 112.045C156.346 112.078 156.52 112.045 156.679 112.104L157.331 112.241C157.434 112.272 157.541 112.289 157.65 112.294C157.769 112.29 157.888 112.277 158.004 112.254C158.004 112.254 158.098 112.215 158.077 112.182C158.017 112.112 157.943 112.052 157.859 112.006C157.754 111.956 157.645 111.912 157.534 111.875L156.875 111.633C156.747 111.576 156.613 111.527 156.477 111.489C156.438 111.486 156.399 111.486 156.361 111.489C157.374 111.058 158.366 110.593 159.322 110.077C159.539 109.952 159.481 109.645 159.199 109.795C158.116 110.366 156.999 110.884 155.854 111.345L155.883 111.463Z" fill="#D955A7"/>
<path d="M143.56 106.035L143.647 105.727C143.647 105.603 143.705 105.472 143.727 105.342C143.723 105.298 143.723 105.254 143.727 105.211C143.734 105.167 143.734 105.123 143.727 105.08C143.724 105.065 143.724 105.049 143.727 105.034C143.727 104.988 143.727 104.949 143.727 104.903C143.727 104.858 143.611 104.779 143.517 104.792C143.461 104.803 143.408 104.824 143.362 104.854C143.316 104.885 143.277 104.924 143.249 104.969C143.204 105.036 143.163 105.106 143.126 105.178L143.083 105.329C143.064 105.382 143.049 105.437 143.039 105.492C143.039 105.597 143.039 105.701 142.981 105.806C142.948 105.927 142.921 106.049 142.902 106.172V106.303L142.764 106.362L141.048 107.016C141.084 106.944 141.121 106.865 141.15 106.793C141.151 106.772 141.151 106.75 141.15 106.728L141.222 106.597C141.282 106.5 141.33 106.397 141.367 106.29C141.388 106.228 141.388 106.162 141.367 106.1C141.36 106.072 141.346 106.045 141.326 106.023C141.306 106 141.28 105.982 141.251 105.969C141.199 105.957 141.144 105.957 141.092 105.969C141.092 105.969 141.092 105.969 141.034 105.969C140.985 105.988 140.941 106.014 140.903 106.048L140.845 106.107C140.8 106.166 140.761 106.23 140.73 106.296C140.672 106.408 140.621 106.525 140.563 106.643L140.455 106.898C140.412 107.022 140.381 107.149 140.36 107.277C139.94 107.447 139.521 107.611 139.122 107.807V107.768C139.188 107.67 139.253 107.572 139.311 107.474C139.398 107.319 139.461 107.154 139.499 106.983C139.499 106.944 139.499 106.865 139.441 106.846C139.399 106.822 139.35 106.809 139.3 106.809C139.25 106.809 139.201 106.822 139.159 106.846C139.107 106.872 139.065 106.911 139.035 106.957C139.03 106.972 139.03 106.988 139.035 107.003C139.035 106.964 138.985 107.081 138.956 107.12C138.956 107.12 138.956 107.16 138.92 107.16C138.833 107.284 138.768 107.428 138.688 107.559C138.483 107.837 138.354 108.155 138.311 108.487C138.311 108.505 138.316 108.522 138.326 108.538C138.337 108.553 138.352 108.565 138.369 108.572C138.401 108.609 138.444 108.636 138.492 108.651C138.625 108.695 138.764 108.719 138.905 108.723H139.202C139.408 108.73 139.613 108.748 139.817 108.775L140.013 108.808H140.259C140.331 108.802 140.4 108.782 140.462 108.749L140.614 108.69C140.708 108.625 140.817 108.513 140.795 108.402L140.679 108.226L140.549 108.121C140.512 108.1 140.473 108.082 140.433 108.069H140.31C140.114 108.033 139.915 108.007 139.716 107.99H139.571C139.948 107.84 140.295 107.676 140.664 107.526H140.773C140.84 107.52 140.908 107.52 140.976 107.526C141.15 107.528 141.322 107.55 141.49 107.591C141.649 107.591 141.816 107.637 141.975 107.676C142.062 107.71 142.155 107.728 142.25 107.729H142.395C142.46 107.729 142.569 107.689 142.547 107.624C142.525 107.559 142.489 107.552 142.46 107.513C142.431 107.482 142.397 107.455 142.359 107.434L142.004 107.454C141.836 107.386 141.658 107.339 141.475 107.317H141.425L142.873 106.722L143.003 106.669C143.116 106.699 143.233 106.717 143.351 106.722H143.597C143.691 106.722 143.785 106.761 143.879 106.78C143.973 106.8 144.205 106.78 144.364 106.839C144.523 106.898 144.806 106.931 145.023 106.977C145.124 107.007 145.228 107.025 145.334 107.029C145.454 107.026 145.572 107.013 145.689 106.99C145.689 106.99 145.783 106.95 145.761 106.918C145.701 106.847 145.628 106.788 145.544 106.741C145.44 106.689 145.331 106.645 145.218 106.61L144.567 106.368C144.436 106.311 144.301 106.263 144.161 106.224C144.123 106.221 144.084 106.221 144.046 106.224C145.059 105.799 146.047 105.328 147.007 104.812C147.231 104.688 147.166 104.38 146.891 104.531C145.806 105.103 144.687 105.62 143.539 106.081L143.56 106.035Z" fill="#D955A7"/>
<path d="M152.408 117.264C151.843 117.146 151.3 117.029 150.815 116.904C149.195 116.507 147.527 116.287 145.848 116.25C143.964 116.199 142.089 115.98 140.252 115.596C139.904 115.518 139.571 115.459 139.238 115.4C139.462 115.224 139.673 115.034 139.868 114.831C139.995 114.665 140.072 114.473 140.091 114.272C140.11 114.071 140.07 113.869 139.977 113.687C139.755 113.296 139.435 112.956 139.043 112.697C138.651 112.437 138.197 112.263 137.718 112.189C137.254 112.15 136.813 112.32 136.364 112.294C135.915 112.267 135.785 111.862 135.539 111.64C135.292 111.417 135.14 111.044 134.858 110.796C134.694 110.645 134.475 110.554 134.242 110.538C134.009 110.522 133.778 110.584 133.591 110.711C133.9 110.072 134.166 109.417 134.387 108.749C134.406 108.709 134.418 108.667 134.424 108.625C134.439 108.586 134.451 108.547 134.46 108.507C134.531 108.117 134.642 107.734 134.793 107.362C135.052 106.934 135.444 106.584 135.922 106.355C136.582 106.036 137.121 105.546 137.472 104.949C138.123 103.7 137.834 102.287 138.529 101.025C138.674 100.757 138.348 100.371 138.022 100.652C136.994 101.503 137.24 102.889 136.979 103.981C136.894 104.324 136.728 104.646 136.493 104.925C136.258 105.205 135.96 105.436 135.618 105.603C134.91 105.958 134.354 106.518 134.04 107.192C133.888 107.62 133.769 108.057 133.685 108.5C131.929 108.697 130.149 108.635 128.414 108.317C126.678 107.936 124.915 107.665 123.136 107.506C122.166 107.467 121.182 107.506 120.197 107.539C120.45 107.35 120.621 107.085 120.678 106.793C120.735 106.501 120.675 106.199 120.508 105.943C120.108 105.499 119.579 105.164 118.981 104.975L118.068 104.603C117.845 104.528 117.629 104.436 117.424 104.328C116.7 103.85 116.338 103.02 115.853 102.412C115.818 102.376 115.774 102.348 115.725 102.33C115.676 102.312 115.623 102.304 115.571 102.307C115.431 102.323 115.29 102.323 115.151 102.307C115.346 101.836 115.498 101.352 115.643 100.868L114.673 101.3C114.507 101.814 114.294 102.315 114.036 102.798C113.312 104.191 112.124 105.414 111.755 106.911C111.731 106.997 111.738 107.088 111.774 107.17C111.81 107.252 111.875 107.322 111.958 107.369C115.448 109.096 119.321 108.147 123.093 108.33C125.039 108.531 126.973 108.823 128.885 109.207C130.383 109.506 131.934 109.522 133.439 109.253C133.316 109.56 133.193 109.861 133.077 110.168C132.654 111.147 132.351 112.164 132.172 113.203C132.078 113.902 131.976 114.942 132.802 115.439C133.765 116.021 135.437 115.773 136.538 115.773C137.197 115.775 137.854 115.837 138.5 115.956C138.5 116.106 138.674 116.087 138.811 116.008C139.803 116.191 140.795 116.44 141.794 116.577C143.676 116.839 145.617 116.715 147.514 116.845C148.935 116.979 150.34 117.226 151.713 117.584L152.408 117.264ZM112.653 106.722C113.095 105.414 114.144 104.308 114.825 103.072C115.013 103.072 115.187 103.111 115.368 103.118C115.748 103.738 116.207 104.315 116.736 104.838C117.126 105.122 117.567 105.343 118.039 105.492C118.57 105.662 119.079 105.881 119.56 106.146C120.088 106.499 119.951 106.865 119.647 107.291C119.6 107.356 119.582 107.436 119.596 107.513C117.229 107.631 114.847 107.689 112.653 106.708V106.722ZM135.633 115.106C134.554 115.106 132.983 115.23 132.816 114.105C132.736 113.038 132.96 111.971 133.468 111.005C133.678 111.156 133.895 111.097 134.134 111.175C134.302 111.251 134.437 111.375 134.518 111.528C134.72 111.849 135.01 112.11 135.242 112.418C135.317 112.56 135.426 112.685 135.561 112.785C135.696 112.884 135.854 112.956 136.024 112.993C136.405 113.01 136.786 112.983 137.16 112.915C137.603 112.909 138.038 113.012 138.421 113.212C138.803 113.413 139.118 113.703 139.332 114.053C139.542 114.426 139.289 114.641 138.999 114.91C138.86 115.032 138.743 115.173 138.652 115.328C137.654 115.178 136.644 115.104 135.633 115.106Z" fill="#D955A7"/>
<path d="M106.093 108.84H106.246C106.299 108.836 106.352 108.82 106.398 108.795C106.45 108.765 106.496 108.727 106.535 108.684C106.567 108.638 106.589 108.587 106.6 108.533C106.608 108.501 106.608 108.467 106.6 108.435C106.593 108.404 106.578 108.375 106.557 108.35C106.542 108.332 106.524 108.317 106.503 108.306C106.482 108.295 106.458 108.287 106.434 108.285C106.384 108.271 106.331 108.271 106.282 108.285C106.225 108.303 106.173 108.332 106.13 108.37C106.092 108.408 106.051 108.443 106.007 108.474L105.963 108.527L105.927 108.585V108.644C105.919 108.67 105.919 108.697 105.927 108.723C105.923 108.738 105.923 108.753 105.927 108.769C105.941 108.783 105.958 108.794 105.978 108.801C105.996 108.808 106.017 108.808 106.036 108.801C106.066 108.811 106.099 108.811 106.13 108.801L106.093 108.84Z" fill="#D955A7"/>
<path d="M116.555 129.612C116.515 129.605 116.473 129.605 116.432 129.612C116.39 129.622 116.351 129.64 116.316 129.664C116.265 129.681 116.222 129.713 116.193 129.755C116.186 129.777 116.186 129.799 116.193 129.821C116.171 129.84 116.158 129.865 116.157 129.893C116.152 129.903 116.149 129.914 116.149 129.925C116.149 129.937 116.152 129.948 116.157 129.958C116.15 129.977 116.15 129.998 116.157 130.017H116.201C116.236 130.027 116.274 130.027 116.309 130.017H116.374C116.416 130.001 116.455 129.979 116.49 129.952C116.53 129.927 116.566 129.898 116.599 129.867L116.649 129.795V129.742C116.654 129.725 116.654 129.707 116.649 129.69C116.646 129.656 116.628 129.624 116.6 129.601C116.572 129.578 116.535 129.566 116.497 129.566L116.555 129.612Z" fill="#D955A7"/>
<path d="M141.331 91.4179C141.808 92.4512 142.902 93.2295 143.358 94.2824C143.537 94.7455 143.804 95.177 144.147 95.5577C144.555 95.9385 144.932 96.345 145.276 96.7742C145.334 96.8592 145.573 96.7742 145.53 96.6891C145.22 96.1879 144.851 95.7186 144.429 95.2896C144.062 94.728 143.759 94.1342 143.524 93.5173C143.263 93.081 142.955 92.6692 142.605 92.2877C142.171 91.7687 141.822 91.1961 141.569 90.5873C141.395 90.2294 141.117 89.9201 140.766 89.6914L140.266 89.9137L140.346 89.966C140.828 90.35 141.171 90.8558 141.331 91.4179Z" fill="#D955A7"/>
<path d="M150.496 92.5493C149.858 91.8298 149.268 91.0763 148.73 90.293C148.332 89.809 147.985 89.2923 147.695 88.7496C147.5 88.2876 147.273 87.8376 147.014 87.4024C146.918 87.2811 146.814 87.1654 146.703 87.0557L146.037 87.3566C146.311 87.5924 146.539 87.8689 146.71 88.1741C147.161 89.08 147.706 89.945 148.339 90.7574C148.807 91.512 149.431 92.1782 150.178 92.7194C150.301 92.8175 150.612 92.6605 150.496 92.5493Z" fill="#D955A7"/>
<path d="M150.801 100.26C150.851 100.365 151.119 100.26 151.105 100.162C150.858 98.6512 148.802 97.8598 148.6 96.3164C148.44 95.1326 148.505 94.1974 147.383 93.2622C146.804 92.7848 146.123 92.3989 145.544 91.9542C144.966 91.4238 144.511 90.7946 144.205 90.1034C143.973 89.6587 143.713 89.1093 143.372 88.5926L142.945 88.7888C143.416 89.4428 143.734 90.1688 144.132 90.8555C144.806 92.0261 145.906 92.6605 146.992 93.563C147.569 93.9929 147.949 94.6014 148.057 95.27C148.129 95.7409 148.057 96.2117 148.18 96.6761C148.462 98.056 150.2 98.8866 150.801 100.26Z" fill="#D955A7"/>
<path d="M98.3033 119.991L106.036 116.551C106.225 116.469 106.44 116.45 106.643 116.498C106.846 116.546 107.023 116.657 107.143 116.813L111.683 123.137C111.798 123.313 111.87 123.508 111.896 123.711C111.923 123.914 111.902 124.119 111.835 124.314L111.799 124.419V124.451C111.715 124.617 111.603 124.769 111.466 124.903C111.291 125.079 111.086 125.227 110.857 125.341L102.423 129.082L97.4779 122.182C97.3477 121.983 97.2731 121.759 97.2607 121.528C97.2368 121.351 97.2592 121.172 97.3259 121.005L97.3693 120.907C97.5591 120.516 97.8878 120.194 98.3033 119.991Z" fill="#37474F"/>
<path d="M97.239 121.528L105.369 117.918C105.588 117.822 105.837 117.8 106.072 117.855C106.306 117.91 106.512 118.039 106.651 118.219L111.06 124.373C111.122 124.457 111.163 124.552 111.18 124.652C111.197 124.752 111.189 124.854 111.157 124.951C111.126 125.047 111.07 125.137 110.996 125.212C110.922 125.287 110.83 125.347 110.727 125.387L102.401 129.082L97.4562 122.182C97.3259 121.983 97.2514 121.759 97.239 121.528Z" fill="#455A64"/>
<path d="M104.247 137.538C104.074 138.728 105.478 140.52 106.673 141.043C107.867 141.567 109.373 141.357 111.69 140.331C114.007 139.304 115.078 138.467 115.064 137.316C115.049 136.165 113.616 134.392 112.508 133.876C110.851 133.833 109.206 134.137 107.701 134.765C106.299 135.398 105.107 136.355 104.247 137.538Z" fill="#37474F"/>
<path d="M107.701 134.745C110.018 133.719 112.269 133.398 112.725 134.033C113.181 134.667 111.668 135.995 109.351 137.048C107.035 138.1 104.783 138.395 104.327 137.76C103.871 137.126 105.384 135.779 107.701 134.745Z" fill="#455A64"/>
<path d="M107.592 136.315C107.831 136.649 109.721 135.811 109.475 135.478L105.5 129.932C103.176 126.662 107.266 125.531 105.348 122.856C103.429 120.181 100.048 122.333 97.7313 119.089L93.7493 113.543L91.8597 114.386L107.592 136.315Z" fill="#D955A7"/>
<path d="M101.641 122.849C102.055 122.67 102.526 122.63 102.97 122.735C103.414 122.841 103.803 123.085 104.066 123.425C104.183 123.584 104.26 123.765 104.291 123.955C104.321 124.144 104.306 124.337 104.245 124.521C104.184 124.704 104.08 124.873 103.939 125.016C103.798 125.159 103.624 125.272 103.429 125.347C103.017 125.526 102.547 125.568 102.105 125.463C101.662 125.359 101.274 125.116 101.011 124.778C100.893 124.619 100.815 124.438 100.783 124.248C100.75 124.058 100.765 123.865 100.825 123.68C100.885 123.496 100.989 123.326 101.13 123.183C101.271 123.039 101.446 122.925 101.641 122.849Z" fill="#37474F"/>
<path d="M86.7772 113.15C86.5962 114.341 88.0007 116.139 89.1953 116.656C90.3899 117.172 91.8959 116.97 94.2127 115.943C96.5295 114.916 97.6082 114.079 97.5865 112.928C97.5648 111.777 96.1385 110.005 95.0308 109.494C93.3758 109.448 91.7317 109.753 90.2307 110.384C88.8284 111.013 87.6365 111.968 86.7772 113.15Z" fill="#37474F"/>
<path d="M90.2307 110.384C92.5474 109.351 94.7919 109.03 95.248 109.665C95.7041 110.299 94.1982 111.627 91.8741 112.679C89.5501 113.732 87.313 114.027 86.8568 113.392C86.4007 112.758 87.9139 111.411 90.2307 110.384Z" fill="#455A64"/>
<path d="M154.087 95.2177L161.82 91.7907C162.008 91.7056 162.224 91.6852 162.428 91.7333C162.632 91.7815 162.809 91.8948 162.927 92.0523L167.431 98.3307C167.55 98.5133 167.628 98.7153 167.66 98.9252C167.692 99.1351 167.678 99.3487 167.619 99.5537L167.583 99.6518V99.6845C167.499 99.8501 167.387 100.002 167.25 100.136C167.078 100.314 166.872 100.462 166.642 100.574L159.018 103.955C158.8 104.052 158.55 104.075 158.315 104.02C158.08 103.965 157.875 103.835 157.736 103.654L153.262 97.4151C153.129 97.2176 153.054 96.9923 153.045 96.7611C153.021 96.5845 153.043 96.4053 153.11 96.2379L153.153 96.1398C153.349 95.751 153.676 95.4282 154.087 95.2177Z" fill="#37474F"/>
<path d="M153.639 96.4864L161.161 93.151C161.378 93.0558 161.626 93.0339 161.86 93.089C162.093 93.1442 162.297 93.2728 162.435 93.4519L166.844 99.606C166.907 99.6899 166.948 99.7851 166.964 99.885C166.981 99.9848 166.973 100.087 166.942 100.184C166.91 100.28 166.855 100.37 166.78 100.445C166.706 100.52 166.614 100.58 166.511 100.62L158.996 103.955C158.779 104.05 158.531 104.072 158.298 104.017C158.064 103.962 157.86 103.833 157.722 103.654L153.306 97.5001C153.245 97.4159 153.205 97.3207 153.189 97.2211C153.172 97.1216 153.181 97.0201 153.212 96.9236C153.244 96.8271 153.298 96.7381 153.372 96.6626C153.446 96.5871 153.537 96.527 153.639 96.4864Z" fill="#455A64"/>
<path d="M176.756 105.335C177.466 105.67 178.073 106.161 178.52 106.761C178.968 107.362 179.242 108.054 179.319 108.775C179.268 109.854 178.262 110.737 175.945 111.79C173.628 112.843 172.166 113.098 170.92 112.503C170.265 112.11 169.711 111.595 169.294 110.993C168.877 110.39 168.607 109.715 168.502 109.011C169.359 107.823 170.551 106.863 171.956 106.231C173.458 105.603 175.101 105.297 176.756 105.335Z" fill="#37474F"/>
<path d="M171.934 106.231C169.617 107.258 168.104 108.612 168.56 109.246C169.016 109.88 171.268 109.56 173.585 108.527C175.902 107.493 177.415 106.153 176.959 105.518C176.502 104.884 174.251 105.204 171.934 106.231Z" fill="#455A64"/>
<path d="M173.701 106.964C173.94 107.297 172.05 108.134 171.811 107.801C171.811 107.801 170.153 105.499 167.829 102.255C165.505 99.0109 162.131 101.169 160.212 98.4942C158.294 95.8194 162.384 94.6552 160.06 91.4179L156.078 85.872L157.968 85.0349L173.701 106.964Z" fill="#D955A7"/>
<path d="M162.131 95.9959C161.93 96.0703 161.75 96.1846 161.604 96.3305C161.458 96.4763 161.351 96.6499 161.29 96.8384C161.229 97.0269 161.215 97.2254 161.251 97.4192C161.286 97.613 161.369 97.7971 161.494 97.9579C161.759 98.2964 162.147 98.5393 162.591 98.6435C163.035 98.7477 163.506 98.7064 163.919 98.5269C164.113 98.4508 164.287 98.3371 164.427 98.1939C164.567 98.0508 164.671 97.8816 164.731 97.6983C164.791 97.515 164.806 97.322 164.775 97.133C164.743 96.944 164.666 96.7634 164.549 96.6041C164.293 96.2583 163.909 96.0068 163.465 95.8953C163.021 95.7837 162.548 95.8194 162.131 95.9959Z" fill="#37474F"/>
<path d="M159.257 80.9735C159.967 81.3089 160.574 81.7992 161.021 82.3999C161.469 83.0006 161.743 83.6928 161.82 84.4136C161.769 85.4862 160.77 86.3756 158.446 87.422C156.122 88.4684 154.674 88.73 153.429 88.1414C152.772 87.7479 152.217 87.2321 151.8 86.6285C151.383 86.025 151.114 85.3478 151.01 84.6425C151.867 83.4543 153.059 82.4946 154.464 81.863C155.964 81.2356 157.605 80.9312 159.257 80.9735Z" fill="#37474F"/>
<path d="M154.464 81.863C152.14 82.8963 150.634 84.2435 151.09 84.8779C151.546 85.5123 153.791 85.1918 156.107 84.1651C158.424 83.1383 159.937 81.7845 159.481 81.1501C159.025 80.5157 156.781 80.8362 154.464 81.863Z" fill="#455A64"/>
<path d="M153.19 48.6594C145.313 48.2801 142.33 48.5744 133.359 56.4093C124.606 64.048 111.473 75.1464 110.097 79.0769C108.722 83.0075 113.616 108.736 116.034 114.393C118.358 119.841 120.479 127.192 125.518 129.311C129.37 130.933 134.387 128.905 136.501 127.224C137.865 126.23 138.749 124.798 138.97 123.228L136.451 124.347C134.279 123.039 132.317 120.246 131.636 117.153C132.606 117.395 133.367 118.075 134.286 118.461C135.234 118.783 136.241 118.941 137.254 118.925C137.978 118.925 138.883 118.925 139.217 118.31C139.305 118.113 139.334 117.898 139.3 117.688C139.265 117.477 139.169 117.279 139.021 117.114C138.726 116.781 138.371 116.496 137.971 116.27C136.132 115.093 134.564 113.605 133.352 111.888C132.491 110.691 129.696 109.03 128.537 108.043C127.69 107.31 125.815 106.558 125.562 105.427C125.308 104.295 125.055 83.4914 125.055 83.4914L147.977 64.2508L153.19 48.6594Z" fill="#FFA8A7"/>
<path d="M153.19 48.6594C153.19 48.6594 154.681 60.3268 148.476 65.5915C142.272 70.8562 125.055 83.4653 125.055 83.4653C125.055 83.4653 111.581 82.0984 109.815 80.8493C109.815 80.8493 108.439 79.6394 111.647 75.0418C114.854 70.4442 130.116 57.2006 133.982 53.7475C137.848 50.2944 143.676 43.035 153.19 48.6594Z" fill="#D955A7"/>
<path d="M153.19 48.6594C153.19 48.6594 154.681 60.3268 148.476 65.5915C142.272 70.8562 125.055 83.4653 125.055 83.4653C125.055 83.4653 111.581 82.0984 109.815 80.8493C109.815 80.8493 108.439 79.6394 111.647 75.0418C114.854 70.4442 130.116 57.2006 133.982 53.7475C137.848 50.2944 143.676 43.035 153.19 48.6594Z" fill="black"/>
<path d="M109.815 80.8427C109.815 80.8427 121.602 78.2267 125.055 83.4587L125.2 93.3734C125.2 93.3734 117.337 90.5219 111.205 93.4911C111.205 93.4911 110.734 91.3329 110.199 87.9844C109.873 85.6159 109.744 83.2286 109.815 80.8427Z" fill="#37474F"/>
<path d="M163.861 61.5628C165.671 54.3688 162.08 51.3016 158.793 49.1368C155.702 47.0963 152.422 46.4293 143.589 43.846C134.757 41.2627 134.713 34.206 141.685 31.5115C148.657 28.817 160.727 29.4514 164.057 32.3944C164.057 32.3944 161.972 28.0453 151.546 27.4502C141.121 26.855 135.488 29.628 131.81 33.9117C128.132 38.1954 129.03 44.9054 137.414 47.77C145.798 50.6345 152.364 50.7457 158.012 53.1001C162.87 55.134 163.557 58.8618 163.861 61.5628Z" fill="#D955A7"/>
<path d="M172.817 68.2533C170.558 68.456 168.473 68.9072 166.186 68.384C165.215 68.2033 164.301 67.8319 163.508 67.2962C162.715 66.7604 162.062 66.0735 161.595 65.2841C160.386 63.0213 161.074 60.5491 162.015 58.3255C162.642 57.1053 163.05 55.8029 163.224 54.4669C163.251 53.0904 162.86 51.7335 162.095 50.5429C161.921 50.2421 161.494 50.2617 161.574 50.6541C161.965 51.9872 162.044 53.3794 161.805 54.7416C161.435 55.9921 160.963 57.2162 160.393 58.404C159.5 60.2412 159.248 62.2807 159.669 64.2508C160.495 67.4292 163.724 69.2604 167.127 69.6986C169.002 69.9406 171.572 69.9471 173.208 68.9792C173.556 68.7503 173.136 68.214 172.817 68.2533Z" fill="#37474F"/>
<path d="M195.102 63.2174C194.006 63.2014 192.925 62.975 191.933 62.5533C190.941 62.1316 190.059 61.5243 189.346 60.7715C187.659 59.0057 186.798 56.8475 186.074 54.6762C185.4 52.6292 184.828 50.5495 183.294 48.8687C181.628 47.0398 179.439 45.6578 176.966 44.8727C176.423 44.7092 176.568 45.409 176.814 45.5922C178.646 46.9394 180.687 47.9269 182.142 49.6666C183.735 51.5828 184.191 54.0549 185.038 56.285C186.588 60.4837 190.005 64.6955 195.442 64.133C196.036 64.0349 195.58 63.2371 195.102 63.2174Z" fill="#37474F"/>
<path d="M158.656 10.492C158.656 10.492 155.108 10.8517 153.74 13.2257C152.553 15.2923 152.813 20.3477 154.145 25.8937C155.478 31.4396 156.802 34.7815 157.635 36.325C158.198 37.2787 159.143 38.0018 160.278 38.3458V31.8058L160.155 27.2278C160.155 27.2278 163.507 23.3038 163.963 20.0338C164.542 15.8417 163.615 14.0955 163.615 14.0955L158.656 10.492Z" fill="#37474F"/>
<path d="M163.174 18.0064C163.113 20.4189 163.845 22.7935 165.278 24.8301C166.711 26.8666 168.78 28.4738 171.224 29.4483C173.668 30.4229 176.377 30.7211 179.008 30.3053C181.639 29.8894 184.075 28.7783 186.008 27.1122C187.94 25.4461 189.282 23.2999 189.865 20.9448C190.447 18.5898 190.244 16.1316 189.28 13.8811C188.316 11.6305 186.635 9.68861 184.45 8.30079C182.264 6.91296 179.673 6.14153 177.002 6.08401C175.227 6.04578 173.461 6.32392 171.806 6.90255C170.15 7.48117 168.637 8.34892 167.352 9.45619C166.068 10.5635 165.038 11.8885 164.321 13.3556C163.604 14.8227 163.214 16.4031 163.174 18.0064Z" fill="#37474F"/>
<path d="M160.365 26.528C159.127 27.4502 158.193 24.965 157.215 23.9774C156.238 22.9899 152.929 21.6034 151.184 24.7295C149.439 27.8557 152.487 32.3683 154.942 33.4735C158.562 35.0889 160.278 31.8058 160.278 31.8058L160.212 46.9721C166.366 51.1773 174.758 48.6202 174.931 46.4489L175.04 41.9755C175.04 41.9755 179.109 42.6295 181.114 42.3875C184.445 41.9951 186.595 39.6734 187.688 36.4492C189.44 31.2695 189.288 23.4346 187.377 13.2518C183.757 10.5639 171.543 9.86412 163.615 14.1413C163.919 23.1403 161.61 25.6059 160.365 26.528Z" fill="#FFA8A7"/>
<path d="M190.15 5.31228C190.112 5.22181 190.048 5.14176 189.966 5.07989C189.883 5.01802 189.785 4.97642 189.679 4.95912C189.509 4.96939 189.346 5.02901 189.216 5.12916C188.269 5.77854 187.264 6.35603 186.211 6.85572C186.521 5.66173 186.575 4.42528 186.371 3.21294C186.248 2.46738 186.067 0.753903 185.06 0.544624C184.459 0.420364 183.916 0.865084 183.46 1.19862C179.297 4.52748 174.048 2.814 169.161 2.83362C165.071 2.83362 160.089 4.23318 158.142 7.77786C157.244 9.39978 157.049 11.1263 158.685 12.3035C160.148 13.2469 161.838 13.8653 163.615 14.1086C171.717 15.5866 182.606 18.3727 188.832 11.6626C189.764 10.7256 190.369 9.56062 190.57 8.31414C190.753 7.30178 190.615 6.26313 190.172 5.31883L190.15 5.31228Z" fill="#D955A7"/>
<path d="M190.15 5.31228C190.112 5.22181 190.048 5.14176 189.966 5.07989C189.883 5.01802 189.785 4.97642 189.679 4.95912C189.509 4.96939 189.346 5.02901 189.216 5.12916C188.269 5.77854 187.264 6.35603 186.211 6.85572C186.521 5.66173 186.575 4.42528 186.371 3.21294C186.248 2.46738 186.067 0.753903 185.06 0.544624C184.459 0.420364 183.916 0.865084 183.46 1.19862C179.297 4.52748 174.048 2.814 169.161 2.83362C165.071 2.83362 160.089 4.23318 158.142 7.77786C157.244 9.39978 157.049 11.1263 158.685 12.3035C160.148 13.2469 161.838 13.8653 163.615 14.1086C171.717 15.5866 182.606 18.3727 188.832 11.6626C189.764 10.7256 190.369 9.56062 190.57 8.31414C190.753 7.30178 190.615 6.26313 190.172 5.31883L190.15 5.31228Z" fill="black"/>
<path d="M175.04 41.9755C175.04 41.9755 167.662 40.4648 165.107 39.1633C163.602 38.4182 162.382 37.278 161.61 35.8933C161.966 37.2701 162.623 38.5687 163.543 39.7127C165.382 41.9428 174.989 43.7609 174.989 43.7609L175.04 41.9755Z" fill="#F28F8F"/>
<path d="M173.614 25.2397C173.595 25.5019 173.492 25.7535 173.316 25.9631C173.141 26.1727 172.901 26.3311 172.627 26.4186C172.352 26.506 172.055 26.5188 171.773 26.4551C171.491 26.3915 171.236 26.2543 171.039 26.0607C170.842 25.867 170.713 25.6254 170.667 25.3659C170.621 25.1064 170.661 24.8404 170.781 24.601C170.901 24.3616 171.096 24.1594 171.342 24.0195C171.589 23.8795 171.875 23.8081 172.166 23.8139C172.365 23.8215 172.56 23.8644 172.74 23.9402C172.92 24.016 173.083 24.1231 173.217 24.2556C173.352 24.388 173.456 24.5431 173.524 24.7119C173.592 24.8808 173.622 25.0601 173.614 25.2397Z" fill="#263238"/>
<path d="M172.173 20.145L168.958 21.6557C168.742 21.2577 168.703 20.7994 168.852 20.3765C169 19.9536 169.324 19.5989 169.755 19.3864C169.968 19.2882 170.201 19.2299 170.439 19.2151C170.678 19.2003 170.917 19.2291 171.143 19.3C171.369 19.3709 171.577 19.4823 171.754 19.6275C171.931 19.7727 172.073 19.9487 172.173 20.145Z" fill="#263238"/>
<path d="M172.607 32.4402L180.115 35.1674C179.939 35.6234 179.663 36.0427 179.303 36.4C178.943 36.7573 178.507 37.0453 178.021 37.2468C177.535 37.4483 177.009 37.5592 176.474 37.5727C175.94 37.5862 175.407 37.5022 174.91 37.3256C173.901 36.9387 173.097 36.2135 172.668 35.3024C172.238 34.3913 172.217 33.3654 172.607 32.4402Z" fill="#B16668"/>
<path d="M186.957 21.5773L184.119 19.4975C184.26 19.324 184.438 19.1782 184.643 19.0688C184.849 18.9595 185.076 18.8889 185.313 18.8614C185.549 18.8339 185.789 18.85 186.018 18.9087C186.247 18.9675 186.461 19.0677 186.646 19.2032C187.025 19.4872 187.269 19.892 187.327 20.334C187.385 20.776 187.253 21.2211 186.957 21.5773Z" fill="#263238"/>
<path d="M185.972 25.1219C185.954 25.3842 185.85 25.6358 185.675 25.8454C185.499 26.055 185.26 26.2134 184.985 26.3008C184.711 26.3883 184.414 26.401 184.132 26.3374C183.85 26.2738 183.594 26.1366 183.398 25.9429C183.201 25.7493 183.072 25.5077 183.026 25.2482C182.98 24.9887 183.019 24.7227 183.139 24.4833C183.259 24.2439 183.455 24.0417 183.701 23.9018C183.947 23.7618 184.234 23.6903 184.524 23.6962C184.723 23.7038 184.918 23.7467 185.099 23.8225C185.279 23.8982 185.441 24.0054 185.576 24.1378C185.71 24.2703 185.814 24.4253 185.883 24.5942C185.951 24.7631 185.981 24.9424 185.972 25.1219Z" fill="#263238"/>
<path d="M178.443 23.6897L178.718 31.7666L183.417 30.4324L178.443 23.6897Z" fill="#F28F8F"/>
<path d="M188.832 11.6953C189.764 10.7583 190.369 9.59332 190.57 8.34684C190.753 7.33448 190.615 6.29583 190.172 5.35153C191.04 7.42471 190.563 10.7012 185.306 12.6436C180.05 14.586 173.505 13.3696 169.943 13.0164C167.757 12.8173 165.555 13.2088 163.615 14.1413C171.688 15.6193 182.606 18.4054 188.832 11.6953Z" fill="black"/>
<path d="M158.46 31.1714C158.477 31.4762 158.393 31.7785 158.22 32.0403C158.047 32.3021 157.791 32.5116 157.486 32.6424C157.181 32.7731 156.84 32.8192 156.506 32.7749C156.171 32.7305 155.859 32.5977 155.609 32.3932C155.358 32.1887 155.18 31.9217 155.097 31.6259C155.015 31.3301 155.031 31.0188 155.144 30.7313C155.257 30.4438 155.462 30.193 155.732 30.0106C156.003 29.8282 156.328 29.7224 156.665 29.7065C156.889 29.6959 157.114 29.7254 157.326 29.7934C157.537 29.8613 157.732 29.9664 157.899 30.1024C158.066 30.2385 158.201 30.403 158.298 30.5864C158.394 30.7699 158.449 30.9687 158.46 31.1714Z" fill="#263238"/>
<path d="M174.91 37.3256C175.669 37.6016 176.505 37.6542 177.299 37.476C177.122 36.8051 176.691 36.2113 176.08 35.7979C175.469 35.3845 174.716 35.1776 173.954 35.2132C173.545 35.2332 173.145 35.3242 172.774 35.4813C173.202 36.3176 173.966 36.9765 174.91 37.3256Z" fill="#F28F8F"/>
</svg>
